<svg width="76" height="72" viewBox="0 0 76 72" fill="none" xmlns="http://www.w3.org/2000/svg">
  <path d="M74.2922 36.0438C71.6466 31.1693 66.3406 28.1104 60.555 28.1246C58.9198 28.1258 57.2952 28.3749 55.743 28.8622L49.4188 16.8796H59.368C60.0235 16.8796 60.555 17.3831 60.555 18.0041C60.555 18.6251 60.0235 19.1286 59.368 19.1286H54.6201C53.9646 19.1286 53.4331 19.6321 53.4331 20.2531C53.4331 20.8741 53.9646 21.3776 54.6201 21.3776H59.368C61.3347 21.3776 62.9289 19.8672 62.9289 18.0041C62.9289 16.1409 61.3347 14.6306 59.368 14.6306H47.4983C46.8428 14.6272 46.3085 15.1279 46.3048 15.7489C46.3037 15.9254 46.3466 16.0997 46.43 16.2577L47.9517 19.1286H26.8662L25.6792 16.8796H32.0675C32.723 16.8796 33.2545 16.3761 33.2545 15.7551C33.2545 15.1341 32.723 14.6306 32.0675 14.6306H20.1978C19.5423 14.6306 19.0108 15.1341 19.0108 15.7551C19.0108 16.3761 19.5423 16.8796 20.1978 16.8796H23.0252L24.8056 20.2531L20.2619 28.8622C12.1675 26.3366 3.44458 30.5055 0.778643 38.1739C-1.88729 45.8423 2.51325 54.1061 10.6077 56.6317C18.7021 59.1574 27.425 54.9884 30.0909 47.32C30.4799 46.2012 30.7246 45.0419 30.82 43.8675H38.0024C38.0985 43.867 38.1942 43.8553 38.2872 43.8327L38.3122 43.8271C38.3395 43.8203 38.3632 43.8057 38.3905 43.7978C38.4386 43.7843 38.4858 43.7683 38.5318 43.7495C38.5389 43.7495 38.5424 43.7405 38.5484 43.7371C38.5543 43.7337 38.5816 43.7214 38.597 43.7124C38.6315 43.6911 38.6648 43.6682 38.6967 43.6438C38.7479 43.6098 38.7963 43.5721 38.8416 43.5313L38.8878 43.4863C38.9056 43.4672 38.9163 43.4459 38.933 43.4256C38.9496 43.4054 38.9887 43.3683 39.0113 43.3345C39.0208 43.3188 39.0255 43.3008 39.0338 43.2851C39.0422 43.2693 39.0552 43.2603 39.0635 43.2457L49.8721 22.7674L53.5517 29.7393C45.9867 33.4243 43.0072 42.2214 46.8969 49.3881C50.7866 56.555 60.0725 59.3776 67.6373 55.6926C75.2023 52.0077 78.1818 43.2106 74.2922 36.0438ZM15.4499 55.1125C8.23891 55.1221 2.38506 49.5918 2.37497 42.7603C2.36488 35.9289 8.20241 30.3831 15.4134 30.3736C16.6918 30.3719 17.9635 30.548 19.1878 30.8964L13.2006 42.2404C12.9076 42.7959 13.1454 43.4713 13.7318 43.7489C13.8968 43.8269 14.0785 43.8675 14.2629 43.8675H28.4461C27.8272 50.2319 22.1964 55.104 15.4499 55.1125ZM16.1835 41.6185L21.3954 31.7443C25.3742 33.6761 28.034 37.4011 28.4461 41.6185H16.1835ZM30.82 41.6185C30.4029 36.5482 27.2342 32.0475 22.453 29.7348L26.1327 22.7629L36.0818 41.6185H30.82ZM38.0024 40.2287L28.0532 21.3776H47.9516L38.0024 40.2287ZM64.3292 54.5896C63.1049 54.9381 61.8332 55.1142 60.5548 55.1125C53.349 55.1182 47.5029 49.5887 47.497 42.7622C47.4929 38.1149 50.2408 33.8582 54.6093 31.7443L60.6795 43.2457C60.9725 43.8015 61.6857 44.0271 62.2724 43.7495C62.859 43.4719 63.0972 42.7962 62.8041 42.2404L56.817 30.8964C63.7233 28.9312 71.0034 32.642 73.0778 39.1847C75.1523 45.7273 71.2355 52.6244 64.3292 54.5896Z" fill="#00FF00"/>
  <path d="M15.4499 44.9921H14.2629C13.6074 44.9921 13.076 45.4956 13.076 46.1166C13.076 46.7376 13.6074 47.2411 14.2629 47.2411H15.4499C16.1054 47.2411 16.6369 46.7376 16.6369 46.1166C16.6369 45.4956 16.1054 44.9921 15.4499 44.9921Z" fill="#00FF00"/>
  <path d="M20.1978 44.9921H19.0108C18.3553 44.9921 17.8239 45.4956 17.8239 46.1166C17.8239 46.7376 18.3553 47.2411 19.0108 47.2411H20.1978C20.8533 47.2411 21.3848 46.7376 21.3848 46.1166C21.3848 45.4956 20.8533 44.9921 20.1978 44.9921Z" fill="#00FF00"/>
  <path d="M24.9457 44.9921H23.7587C23.1032 44.9921 22.5717 45.4956 22.5717 46.1166C22.5717 46.7376 23.1032 47.2411 23.7587 47.2411H24.9457C25.6012 47.2411 26.1327 46.7376 26.1327 46.1166C26.1327 45.4956 25.6012 44.9921 24.9457 44.9921Z" fill="#00FF00"/>
</svg>
