<svg width="79" height="80" viewBox="0 0 79 80" fill="none" xmlns="http://www.w3.org/2000/svg">
<g clip-path="url(#clip0)">
<path d="M18.4334 54.4834C16.2519 54.4834 14.4834 56.2519 14.4834 58.4334C14.4834 60.6148 16.2518 62.3834 18.4334 62.3834C20.615 62.3834 22.3834 60.615 22.3834 58.4334C22.3809 56.2529 20.6139 54.4857 18.4334 54.4834ZM18.4334 59.75C17.7062 59.75 17.1168 59.1606 17.1168 58.4334C17.1168 57.7062 17.7062 57.1168 18.4334 57.1168C19.1606 57.1168 19.75 57.7062 19.75 58.4334C19.7492 59.1603 19.1603 59.7492 18.4334 59.75Z" fill="#00ff00"/>
<path d="M60.5666 54.4834C58.3851 54.4834 56.6166 56.2519 56.6166 58.4334C56.6166 60.6148 58.3851 62.3834 60.5666 62.3834C62.748 62.3834 64.5166 60.615 64.5166 58.4334C64.5143 56.2529 62.7471 54.4857 60.5666 54.4834ZM60.5666 59.75C59.8394 59.75 59.25 59.1606 59.25 58.4334C59.25 57.7062 59.8395 57.1168 60.5666 57.1168C61.2938 57.1168 61.8832 57.7062 61.8832 58.4334C61.8826 59.1603 61.2935 59.7492 60.5666 59.75Z" fill="#00ff00"/>
<path d="M77.9965 35.7414L68.9264 25.527C68.175 24.6808 67.0968 24.1977 65.9652 24.2H53.9834V16.3C53.9811 14.1195 52.2139 12.3523 50.0334 12.35H3.95C1.76948 12.3523 0.00231458 14.1195 1.28586e-07 16.3V50.5334C-0.000154168 50.8826 0.138559 51.2175 0.385588 51.4646C0.632463 51.7114 0.967442 51.8502 1.31677 51.8502H2.63338V55.8002C2.6357 57.9807 4.40286 59.7478 6.58338 59.7502H9.32185C9.97082 64.2834 13.8539 67.6502 18.4334 67.6502C23.0129 67.6502 26.896 64.2834 27.5449 59.7502H51.4554C52.1044 64.2834 55.9874 67.6502 60.5669 67.6502C65.1465 67.6502 69.0295 64.2834 69.6785 59.7502H75.05C77.2305 59.7478 78.9977 57.9807 79 55.8002V38.3671C78.9991 37.3983 78.6419 36.4638 77.9965 35.7414ZM2.63338 49.2166V16.3C2.63416 15.5731 3.22311 14.984 3.95 14.9834H50.0334C50.7603 14.9842 51.3494 15.5731 51.35 16.3V49.2166H2.63338ZM9.32185 57.1166H6.58338C5.85649 57.1158 5.26739 56.5269 5.26677 55.8V51.85H11.9957C10.5493 53.2637 9.60946 55.1148 9.32185 57.1166ZM18.4334 65.0166C14.7975 65.0166 11.85 62.0691 11.85 58.4332C11.85 54.7974 14.7975 51.85 18.4334 51.85C22.0692 51.85 25.0168 54.7975 25.0168 58.4334C25.0124 62.0674 22.0674 65.0125 18.4334 65.0166ZM31.6 57.1166H27.5448C27.2572 55.1148 26.3175 53.2635 24.8711 51.85H31.6V57.1166ZM43.45 57.1166H34.2334V51.85H43.45V57.1166ZM51.4552 57.1166H46.0834V51.85H54.1289C52.6825 53.2637 51.7428 55.1148 51.4552 57.1166ZM60.5666 65.0166C56.9308 65.0166 53.9832 62.0691 53.9832 58.4332C53.9832 54.7974 56.9306 51.8499 60.5666 51.8499C64.2025 51.8499 67.15 54.7974 67.15 58.4332C67.1457 62.0674 64.2008 65.0125 60.5666 65.0166ZM76.3666 55.8C76.3658 56.5269 75.7769 57.116 75.05 57.1166H69.6782C69.0216 52.5875 65.1432 49.2248 60.5666 49.2166H53.9832V26.8334H59.25V40C59.2523 42.1805 61.0195 43.9477 63.2 43.95H76.3666V55.8ZM76.3666 41.3166H63.2C62.4731 41.3158 61.884 40.7269 61.8834 40V26.8334H65.9652C66.3432 26.8312 66.7039 26.9914 66.9559 27.2731L76.0292 37.4914C76.2452 37.7322 76.3652 38.0437 76.3668 38.3671V41.3166H76.3666Z" fill="#00ff00"/>
</g>
<defs>
<clipPath id="clip0">
<rect width="79" height="79" fill="white" transform="translate(0 0.5)"/>
</clipPath>
</defs>
</svg>
