<svg width="96" height="96" viewBox="0 0 96 96" fill="none" xmlns="http://www.w3.org/2000/svg">
<g clip-path="url(#clip0)">
<path d="M1.6 25.6H65.6C66.4836 25.6 67.2 26.3164 67.2 27.2V37.2C67.2 38.0836 66.4836 38.8 65.6 38.8C64.7164 38.8 64 38.0836 64 37.2V28.8H3.2V54.4H5.2C6.0836 54.4 6.8 55.1164 6.8 56C6.8 56.8836 6.0836 57.6 5.2 57.6H3.2V60.8H7.29609C8.33594 59.0359 10.157 57.8766 12.1953 57.6805C14.2336 57.4844 16.2422 58.275 17.6 59.8078C18.9578 58.275 20.9664 57.4844 23.0047 57.6805C25.043 57.8766 26.8641 59.0359 27.9039 60.8H39.2961C40.3359 59.0359 42.157 57.8766 44.1953 57.6805C46.2336 57.4844 48.2422 58.275 49.6 59.8078C50.9578 58.275 52.9664 57.4844 55.0047 57.6805C57.043 57.8766 58.8641 59.0359 59.9039 60.8H64V57.6H61.3922C60.5086 57.6 59.7922 56.8836 59.7922 56C59.7922 55.1164 60.5086 54.4 61.3922 54.4H64V44.8C64 43.9164 64.7164 43.2 65.6 43.2C66.4836 43.2 67.2 43.9164 67.2 44.8V54.4H70.4V33.6C70.4 32.7164 71.1164 32 72 32H84.8C90.9859 32 96 37.0141 96 43.2V62.4C96 63.2836 95.2836 64 94.4 64H89.6C89.6 67.5344 86.7344 70.4 83.2 70.4C79.6656 70.4 76.8 67.5344 76.8 64H60.8C60.7828 66.6539 59.1297 69.0227 56.6437 69.9531C54.1578 70.8836 51.3555 70.1828 49.6 68.1922C47.8445 70.1828 45.0422 70.8836 42.5562 69.9531C40.0703 69.0227 38.4172 66.6539 38.4 64H28.8C28.7828 66.6539 27.1297 69.0227 24.6437 69.9531C22.1578 70.8836 19.3555 70.1828 17.6 68.1922C15.8445 70.1828 13.0422 70.8836 10.5563 69.9531C8.07031 69.0227 6.41718 66.6539 6.4 64H1.6C0.716408 64 0 63.2836 0 62.4V27.2C0 26.3164 0.716408 25.6 1.6 25.6ZM83.2 67.2C84.9672 67.2 86.4 65.7672 86.4 64C86.4 62.2328 84.9672 60.8 83.2 60.8C81.4328 60.8 80 62.2328 80 64C80 65.7672 81.4328 67.2 83.2 67.2ZM77.6961 60.8C78.8492 58.857 80.9406 57.6656 83.2 57.6656C85.4594 57.6656 87.5508 58.857 88.7039 60.8H92.8V57.6H91.2C90.3164 57.6 89.6 56.8836 89.6 56C89.6 55.1164 90.3164 54.4 91.2 54.4H92.8V51.2H80C79.1164 51.2 78.4 50.4836 78.4 49.6V40C78.4 39.1164 79.1164 38.4 80 38.4C80.8836 38.4 81.6 39.1164 81.6 40V48H92.8V43.2C92.8 38.782 89.218 35.2 84.8 35.2H73.6V60.8H77.6961ZM70.4 57.6H67.2V60.8H70.4V57.6ZM54.4 67.2C56.1672 67.2 57.6 65.7672 57.6 64C57.6 62.2328 56.1672 60.8 54.4 60.8C52.6328 60.8 51.2 62.2328 51.2 64C51.2 65.7672 52.6328 67.2 54.4 67.2ZM44.8 67.2C46.5672 67.2 48 65.7672 48 64C48 62.2328 46.5672 60.8 44.8 60.8C43.0328 60.8 41.6 62.2328 41.6 64C41.6 65.7672 43.0328 67.2 44.8 67.2ZM22.4 67.2C24.1672 67.2 25.6 65.7672 25.6 64C25.6 62.2328 24.1672 60.8 22.4 60.8C20.6328 60.8 19.2 62.2328 19.2 64C19.2 65.7672 20.6328 67.2 22.4 67.2ZM12.8 67.2C14.5672 67.2 16 65.7672 16 64C16 62.2328 14.5672 60.8 12.8 60.8C11.0328 60.8 9.6 62.2328 9.6 64C9.6 65.7672 11.0328 67.2 12.8 67.2Z" fill="#00ff00"/>
<path d="M54.4 49.6V33.6C54.4 32.7164 55.1164 32 56 32C56.8836 32 57.6 32.7164 57.6 33.6V49.6C57.6 50.4836 56.8836 51.2 56 51.2C55.1164 51.2 54.4 50.4836 54.4 49.6Z" fill="#00ff00"/>
<path d="M48 49.6V33.6C48 32.7164 48.7164 32 49.6 32C50.4835 32 51.2 32.7164 51.2 33.6V49.6C51.2 50.4836 50.4835 51.2 49.6 51.2C48.7164 51.2 48 50.4836 48 49.6Z" fill="#00ff00"/>
<path d="M41.6001 49.6V33.6C41.6001 32.7164 42.3165 32 43.2001 32C44.0836 32 44.8 32.7164 44.8 33.6V49.6C44.8 50.4836 44.0836 51.2 43.2001 51.2C42.3165 51.2 41.6001 50.4836 41.6001 49.6Z" fill="#00ff00"/>
<path d="M36.8 51.2C35.9164 51.2 35.2 50.4836 35.2 49.6V33.6C35.2 32.7164 35.9164 32 36.8 32C37.6836 32 38.4 32.7164 38.4 33.6V49.6C38.4 50.4836 37.6836 51.2 36.8 51.2Z" fill="#00ff00"/>
<path d="M28.8 49.6V33.6C28.8 32.7164 29.5164 32 30.4 32C31.2836 32 32 32.7164 32 33.6V49.6C32 50.4836 31.2836 51.2 30.4 51.2C29.5164 51.2 28.8 50.4836 28.8 49.6Z" fill="#00ff00"/>
<path d="M25.6 49.6C25.6 50.4836 24.8836 51.2 24 51.2C23.1164 51.2 22.4 50.4836 22.4 49.6V46.4C22.4 45.5164 23.1164 44.8 24 44.8C24.8836 44.8 25.6 45.5164 25.6 46.4V49.6Z" fill="#00ff00"/>
<path d="M24 40C23.1164 40 22.4 39.2836 22.4 38.4V33.6C22.4 32.7164 23.1164 32 24 32C24.8836 32 25.6 32.7164 25.6 33.6V38.4C25.6 39.2836 24.8836 40 24 40Z" fill="#00ff00"/>
<path d="M16 49.6V33.6C16 32.7164 16.7164 32 17.6 32C18.4835 32 19.2 32.7164 19.2 33.6V49.6C19.2 50.4836 18.4835 51.2 17.6 51.2C16.7164 51.2 16 50.4836 16 49.6Z" fill="#00ff00"/>
<path d="M9.60005 49.6V33.6C9.60005 32.7164 10.3165 32 11.2001 32C12.0836 32 12.8 32.7164 12.8 33.6V49.6C12.8 50.4836 12.0836 51.2 11.2001 51.2C10.3165 51.2 9.60005 50.4836 9.60005 49.6Z" fill="#00ff00"/>
<path d="M36.8 57.6H31.3922C30.5086 57.6 29.7922 56.8836 29.7922 56C29.7922 55.1164 30.5086 54.4 31.3922 54.4H36.8C37.6836 54.4 38.4 55.1164 38.4 56C38.4 56.8836 37.6836 57.6 36.8 57.6Z" fill="#00ff00"/>
</g>
<defs>
<clipPath id="clip0">
<rect width="96" height="96" fill="white" transform="matrix(-1 0 0 1 96 0)"/>
</clipPath>
</defs>
</svg>
