<svg width="15" height="9" viewBox="0 0 15 9" fill="none" xmlns="http://www.w3.org/2000/svg">
  <path d="M6.9147 0.239276L0.239632 6.91447C0.0851213 7.06886 1.83336e-08 7.27495 1.57131e-08 7.49471C1.30925e-08 7.71446 0.0851213 7.92056 0.239632 8.07494L0.731091 8.56653C1.05133 8.8864 1.57182 8.8864 1.89157 8.56653L7.49689 2.96121L13.1084 8.57275C13.2629 8.72713 13.4689 8.81238 13.6885 8.81238C13.9084 8.81238 14.1144 8.72713 14.269 8.57275L14.7604 8.08116C14.9149 7.92665 15 7.72068 15 7.50093C15 7.28117 14.9149 7.07507 14.7604 6.92069L8.0792 0.239276C7.9242 0.0845214 7.71725 -0.000477699 7.49725 9.62615e-06C7.2764 -0.000477704 7.06958 0.0845214 6.9147 0.239276Z" fill="black"/>
</svg>
