<svg width="15" height="9" viewBox="0 0 15 9" fill="none" xmlns="http://www.w3.org/2000/svg">
  <path d="M8.0853 8.5731L14.7604 1.89791C14.9149 1.74352 15 1.53743 15 1.31767C15 1.09792 14.9149 0.891822 14.7604 0.737433L14.2689 0.245852C13.9487 -0.0740237 13.4282 -0.0740238 13.1084 0.245852L7.50311 5.85117L1.89157 0.239632C1.73706 0.0852427 1.53109 -5.88745e-07 1.31146 -5.98345e-07C1.09158 -6.07956e-07 0.885605 0.0852426 0.730972 0.239632L0.239635 0.731213C0.085124 0.885724 2.8133e-06 1.0917 2.8037e-06 1.31145C2.79409e-06 1.53121 0.0851239 1.7373 0.239635 1.89169L6.9208 8.5731C7.0758 8.72786 7.28275 8.81286 7.50275 8.81237C7.7236 8.81286 7.93042 8.72786 8.0853 8.5731Z" fill="black"/>
</svg>
