<svg width="34" height="32" viewBox="0 0 34 32" fill="none" xmlns="http://www.w3.org/2000/svg">
  <line x1="0.5" y1="2.18557e-08" x2="0.499999" y2="32" stroke="#B4B1B1"/>
  <g clip-path="url(#clip0)">
    <path d="M27.0853 19.6669L33.7604 12.9917C33.9149 12.8373 34 12.6312 34 12.4115C34 12.1917 33.9149 11.9856 33.7604 11.8312L33.2689 11.3397C32.9487 11.0198 32.4282 11.0198 32.1084 11.3397L26.5031 16.945L20.8916 11.3334C20.7371 11.1791 20.5311 11.0938 20.3115 11.0938C20.0916 11.0938 19.8856 11.1791 19.731 11.3334L19.2396 11.825C19.0851 11.9795 19 12.1855 19 12.4053C19 12.625 19.0851 12.8311 19.2396 12.9855L25.9208 19.6669C26.0758 19.8217 26.2827 19.9067 26.5027 19.9062C26.7236 19.9067 26.9304 19.8217 27.0853 19.6669Z" fill="#797979"/>
  </g>
  <defs>
    <clipPath id="clip0">
      <rect width="15" height="15" fill="white" transform="translate(34 8) rotate(90)"/>
    </clipPath>
  </defs>
</svg>
