<svg width="52" height="52" viewBox="0 0 52 52" fill="none" xmlns="http://www.w3.org/2000/svg">
<g clip-path="url(#clip0)">
<path d="M24.4988 26.1637C24.1016 26.5528 24.1016 27.1848 24.4988 27.575C24.8959 27.9653 25.5386 27.9653 25.9349 27.575C26.3321 27.1848 26.3321 26.5528 25.9349 26.1637C25.5386 25.7735 24.8959 25.7735 24.4988 26.1637Z" fill="black"/>
<path d="M40.648 3.46957C38.9052 4.79548 38.4303 5.47891 32.2493 11.4902L28.5438 10.8972L30.2442 9.22625C31.4352 8.05589 31.4356 6.16234 30.2442 4.99197C29.0536 3.822 27.1255 3.82161 25.9349 4.99197L21.1321 9.71163L4.33543 7.02432C3.24998 6.85122 2.13954 7.20404 1.36274 7.96739C-0.130943 9.43522 0.0717854 11.8637 1.77574 13.0753L18.5141 24.9872L15.3804 28.0671C14.3064 29.1224 13.1761 30.5739 12.0145 32.3863L4.20848 30.1306C3.05638 29.798 1.81224 30.1095 0.961252 30.9442C-0.487602 32.368 -0.268608 34.7325 1.41432 35.8779L7.81356 40.2311C6.69954 42.6471 6.02232 44.394 5.99098 44.4747C5.84895 44.842 5.93981 45.2572 6.22228 45.5348C6.50633 45.8139 6.92925 45.9008 7.30098 45.7621C7.38311 45.7316 9.16085 45.0658 11.6194 43.971L16.0497 50.2599C17.2172 51.9164 19.6234 52.1261 21.0707 50.7039C21.9197 49.8685 22.2366 48.6459 21.8978 47.5137L19.6028 39.8432C21.4483 38.7009 22.9246 37.5902 23.9981 36.5356L27.1323 33.4557L39.2535 49.9043C40.4886 51.5815 42.9598 51.7764 44.4519 50.3102C45.2283 49.5472 45.5873 48.4552 45.4116 47.3882L42.6769 30.8834L47.4793 26.1641C48.6703 24.9938 48.6703 23.0991 47.4793 21.9291C46.2887 20.7587 44.3618 20.7587 43.1708 21.9291L41.4701 23.6L40.867 19.9587C46.9906 13.8785 47.6749 13.4227 49.025 11.7101C49.0266 11.7081 49.0285 11.7058 49.0301 11.7034C52.1627 7.71398 52.8959 3.68477 50.8531 1.6766C48.81 -0.330016 44.7094 0.389668 40.648 3.46957ZM27.3711 6.40366C27.7678 6.01341 28.4109 6.01341 28.8081 6.40366C29.2052 6.79391 29.2048 7.42431 28.8081 7.81457L26.073 10.5019L23.6026 10.1066L27.3711 6.40366ZM2.96672 11.4582C2.27165 10.9643 2.19191 9.97517 2.7993 9.37869C3.11549 9.06758 3.56856 8.92372 4.00972 8.99428L30.4795 13.2293L19.9689 23.5575L2.96672 11.4582ZM2.39741 32.3563C2.72194 32.0378 3.19642 31.9185 3.6356 32.0456L10.9366 34.1555C10.19 35.4405 9.43657 36.86 8.68517 38.3964L2.57078 34.237C1.92927 33.8003 1.84516 32.8986 2.39741 32.3563ZM19.6337 49.2934C19.0862 49.8314 18.1674 49.7589 17.7195 49.1234L13.4868 43.1145C15.0515 42.3753 16.4964 41.6346 17.8024 40.9024L19.9491 48.0767C20.0784 48.5086 19.9574 48.9749 19.6337 49.2934ZM44.6074 23.3404C45.0041 22.9505 45.646 22.9501 46.0432 23.3404C46.4403 23.7306 46.4399 24.3622 46.0432 24.7525L42.2746 28.4554L41.8727 26.0277L44.6074 23.3404ZM43.4065 47.7082C43.4783 48.1429 43.3319 48.5882 43.0157 48.8989C42.4115 49.4926 41.4042 49.4201 40.8992 48.734L28.5867 32.0265L39.0972 21.6979L43.4065 47.7082ZM22.562 35.1239C21.4444 36.2225 19.8087 37.4085 17.7004 38.6494C14.9598 40.2623 11.7166 41.7898 8.7911 43.0108C10.0674 40.058 11.6511 36.8194 13.3277 34.0955C14.554 32.1017 15.7279 30.5481 16.8169 29.4783C41.626 5.15727 40.1561 6.41185 41.6617 5.22862C43.3319 5.12375 44.8022 5.61107 45.8258 6.61691C46.8493 7.62275 47.3456 9.06797 47.2389 10.7089C46.0321 12.1919 47.2937 10.7615 22.562 35.1239ZM48.977 8.0863C48.6525 6.98611 48.076 6.00522 47.2623 5.20562C46.4486 4.4064 45.4504 3.83955 44.3313 3.52064C45.8012 2.78809 48.2764 1.96782 49.4169 3.08789C50.3175 3.97327 50.0938 5.92218 48.977 8.0863Z" fill="black"/>
<path d="M30.2442 20.5178L27.3719 23.34C26.9752 23.7298 26.9752 24.3618 27.3719 24.7517C27.7686 25.1415 28.4113 25.1411 28.8084 24.7517L31.6804 21.9291C32.0771 21.5396 32.0771 20.9076 31.6804 20.5178C31.2836 20.1279 30.6409 20.1279 30.2442 20.5178Z" fill="black"/>
<path d="M35.9897 14.8718L33.1162 17.6952C32.7199 18.085 32.7199 18.717 33.1162 19.1069C33.5133 19.4963 34.156 19.4963 34.5528 19.1069L37.4259 16.2835C37.8226 15.8936 37.8226 15.2617 37.4259 14.8718C37.0292 14.4819 36.3865 14.4819 35.9897 14.8718Z" fill="black"/>
</g>
<defs>
<clipPath id="clip0">
<rect width="52" height="51" fill="white" transform="translate(0 0.5)"/>
</clipPath>
</defs>
</svg>
