<svg width="78" height="78" viewBox="0 0 78 78" fill="none" xmlns="http://www.w3.org/2000/svg">
  <path d="M65.0506 36.7834C64.4202 36.7834 63.801 36.8309 63.1943 36.9185L62.4009 33.9573C63.2632 33.8129 64.1481 33.7365 65.0508 33.7365C66.3065 33.7365 67.5593 33.8834 68.7739 34.1728C69.3613 34.3128 69.9761 34.0927 70.3408 33.6116C73.879 28.9479 74.0819 26.167 71.1448 22.5912C67.3542 17.9767 63.8666 15.6056 60.4823 15.3427C57.947 15.1451 55.5055 16.1312 53.0104 18.355C52.6823 18.6473 52.4964 19.0674 52.5005 19.507C52.5048 19.9467 52.6987 20.3629 53.0325 20.649L55.52 22.7812C55.4184 23.2228 55.3309 23.6399 55.25 24.0263C55.0419 25.019 54.8773 25.8003 54.6145 26.4483C54.2557 26.2392 53.9023 26.0325 53.5551 25.8291C48.4427 22.8354 44.4055 20.4706 40.2949 21.6081C37.5642 22.3638 35.1679 24.6092 32.8051 28.6414L21.251 25.3351L20.5376 23.1282C19.8033 20.8565 18.2352 19.6149 15.6035 19.2221L2.535 17.0087C1.98671 16.9155 1.43142 17.1291 1.08621 17.5651C0.741 18.0009 0.660867 18.5904 0.876891 19.1028C4.13171 26.818 5.36463 28.856 10.0107 31.1645L21.2248 36.736C24.1186 38.1737 25.155 39.2727 26.0465 41.8491L28.2471 48.2092H25.8058C25.049 41.7847 19.5737 36.7834 12.9492 36.7834C5.80902 36.7834 0 42.5924 0 49.7326C0 56.8728 5.80902 62.6818 12.9492 62.6818C19.5739 62.6818 25.0491 57.6806 25.8058 51.2561H29.3013L30.7914 55.5628C31.0038 56.1765 31.5818 56.5881 32.2311 56.5881H48.3582C48.8443 56.5881 49.3015 56.3561 49.5883 55.9633C49.8752 55.5706 49.9573 55.0647 49.8094 54.6015C49.3083 53.0312 49.0542 51.3932 49.0542 49.7326C49.0542 42.8788 53.3873 37.0189 59.4576 34.7463L60.2515 37.7092C55.481 39.6202 52.1011 44.2877 52.1011 49.7328C52.1011 56.873 57.9101 62.682 65.0503 62.682C72.1905 62.682 77.9995 56.873 77.9995 49.7328C77.9995 42.5926 72.1908 36.7834 65.0506 36.7834ZM12.9492 59.635C7.48907 59.635 3.04688 55.1928 3.04688 49.7326C3.04688 44.2725 7.48907 39.8303 12.9492 39.8303C17.8914 39.8303 21.9992 43.4698 22.7343 48.2092H19.6321C18.9372 45.1602 16.2057 42.8772 12.9492 42.8772C9.16911 42.8772 6.09375 45.9525 6.09375 49.7326C6.09375 53.5127 9.16911 56.5881 12.9492 56.5881C16.2057 56.5881 18.9371 54.3051 19.6321 51.2561H22.7343C21.9992 55.9955 17.8914 59.635 12.9492 59.635ZM12.9492 51.2561H16.439C15.85 52.5997 14.5078 53.5412 12.9492 53.5412C10.8492 53.5412 9.14062 51.8327 9.14062 49.7326C9.14062 47.6326 10.8492 45.924 12.9492 45.924C14.5078 45.924 15.85 46.8655 16.439 48.2092H12.9492C12.1078 48.2092 11.4258 48.8914 11.4258 49.7326C11.4258 50.5739 12.1078 51.2561 12.9492 51.2561ZM41.1075 24.5447C43.976 23.7512 47.5239 25.8284 52.0155 28.4583C52.1352 28.5284 52.2568 28.5995 52.3779 28.6705C52.1205 28.7962 51.8369 28.9199 51.5201 29.0436L44.1989 31.9019L35.8396 29.5098C37.6105 26.6635 39.3423 25.0331 41.1075 24.5447ZM49.2302 39.1447H44.2546C43.4134 39.1447 42.7312 39.8269 42.7312 40.6682C42.7312 41.5094 43.4134 42.1916 44.2546 42.1916H47.566C47.1432 43.168 46.8003 44.1862 46.5447 45.2386H40.8274C39.9861 45.2386 39.3039 45.9208 39.3039 46.7621C39.3039 47.6033 39.9861 48.2855 40.8274 48.2855H46.0622C46.0261 48.7633 46.0075 49.2457 46.0075 49.7326C46.0075 51.0181 46.1356 52.2925 46.3896 53.5412H33.3161L28.9258 40.853C27.6288 37.1041 25.6949 35.5548 22.5804 34.0072L11.3664 28.4357C8.2194 26.8722 7.1079 25.7007 4.78877 20.4806L15.1101 22.2289C15.1207 22.2308 15.1312 22.2324 15.1419 22.234C16.8232 22.4823 17.3163 23.0691 17.6385 24.0654L18.6018 27.045C18.7579 27.5279 19.1443 27.9013 19.6322 28.041L43.8549 34.9726C44.1754 35.0645 44.5176 35.0484 44.8281 34.9271L52.6281 31.8819C57.0803 30.1438 57.6141 27.5988 58.232 24.6517C58.367 24.0079 58.5067 23.3421 58.6962 22.6231C58.8454 22.0583 58.6581 21.4581 58.2147 21.0778L56.424 19.543C57.7486 18.6557 58.9898 18.284 60.246 18.3804C62.7246 18.5731 65.5994 20.6406 68.7904 24.5252C69.546 25.4452 70.1494 26.1817 70.1416 27.2401L68.0676 26.3866C67.2889 26.066 66.3992 26.4376 66.0789 27.2153C65.7586 27.9933 66.1298 28.8838 66.9077 29.204L69.0762 30.0966C68.9013 30.3795 68.7037 30.6787 68.4782 30.9988C67.3501 30.7934 66.2013 30.6898 65.0503 30.6898C58.4657 30.6897 52.6514 34.0496 49.2302 39.1447ZM65.0506 59.635C59.5905 59.635 55.1483 55.1928 55.1483 49.7326C55.1483 45.6969 57.5765 42.2195 61.0475 40.6787L61.8497 43.6728C59.6782 44.8246 58.1952 47.108 58.1952 49.7326C58.1952 53.5127 61.2705 56.5881 65.0506 56.5881C68.8307 56.5881 71.9061 53.5127 71.9061 49.7326C71.9061 45.9525 68.8307 42.8772 65.0506 42.8772C64.9641 42.8772 64.8783 42.8805 64.7927 42.8837L63.99 39.8879C64.3387 39.8505 64.6923 39.8303 65.0508 39.8303C70.5109 39.8303 74.9531 44.2725 74.9531 49.7326C74.9531 55.1928 70.5108 59.635 65.0506 59.635ZM63.5791 50.1269C63.7615 50.8076 64.377 51.2565 65.0497 51.2565C65.1801 51.2565 65.313 51.2396 65.4449 51.2041C66.2577 50.9863 66.74 50.151 66.5221 49.3384L65.6187 45.9665C67.4503 46.2417 68.8592 47.8256 68.8592 49.7326C68.8592 51.8327 67.1507 53.5412 65.0506 53.5412C62.9506 53.5412 61.242 51.8327 61.242 49.7326C61.242 48.5299 61.803 47.4563 62.6764 46.7578L63.5791 50.1269Z" fill="black"/>
  <path d="M37.3997 39.1447H37.3986C36.5572 39.1447 35.8756 39.8269 35.8756 40.6682C35.8756 41.5094 36.5583 42.1916 37.3997 42.1916C38.2411 42.1916 38.9231 41.5094 38.9231 40.6682C38.9231 39.8269 38.2411 39.1447 37.3997 39.1447Z" fill="black"/>
</svg>
