<svg width="74" height="74" viewBox="0 0 74 74" fill="none" xmlns="http://www.w3.org/2000/svg">
<g clip-path="url(#clip0)">
<path d="M72.7629 46.8637C69.3953 46.7846 66.0785 47.6954 63.2236 49.4831C62.6822 49.7816 62.1482 50.0764 61.587 50.3464L73.4079 36.1342C74.0341 35.4021 74.1768 34.3722 73.7729 33.4974C73.3691 32.6226 72.493 32.063 71.5295 32.0644H60.8309L47.8334 22.6114L47.2044 21.3548C45.9581 18.842 43.3916 17.2561 40.5867 17.2652H27.8939L26.6607 14.7986H33.2982C33.9794 14.7986 34.5315 14.2464 34.5315 13.5654C34.5315 12.8844 33.9794 12.3322 33.2982 12.3322H19.7322C19.0511 12.3322 18.499 12.8843 18.499 13.5654C18.499 14.2465 19.0511 14.7986 19.7322 14.7986H23.9032L25.1364 17.2652H19.7322C17.689 17.2652 16.0324 18.9216 16.0324 20.965C16.0324 23.0084 17.6888 24.6648 19.7322 24.6648H21.4366L17.7368 32.0644H16.6491C15.8732 32.066 15.1428 32.4312 14.6759 33.0511L11.7161 36.9976H9.59478C9.17465 36.9975 8.78328 37.2112 8.55638 37.5649L2.55778 46.9106C2.1323 46.8859 1.70307 46.8638 1.23322 46.8638C0.55208 46.8638 0 47.4159 0 48.097C0 48.7782 0.55208 49.3302 1.23322 49.3302C4.18222 49.2593 7.08614 50.0644 9.57758 51.6439C12.4319 53.4321 15.7484 54.3429 19.1157 54.2634C21.7547 54.3399 24.3738 53.7829 26.7533 52.6392L26.7707 52.6306C27.428 52.3136 28.0422 51.9769 28.6489 51.6439C31.1388 50.0651 34.041 49.26 36.9882 49.3302C39.9384 49.259 42.8436 50.0641 45.3362 51.6439C48.1926 53.4325 51.5113 54.3433 54.8804 54.2634C58.2479 54.3425 61.5648 53.4317 64.4197 51.6439C66.911 50.0651 69.8142 49.2601 72.7627 49.3302C73.4439 49.3302 73.9959 48.7782 73.9959 48.097C73.9959 47.4159 73.444 46.8637 72.7629 46.8637ZM46.4633 24.6648L49.8549 27.1314H35.7648C35.0837 27.1314 34.5316 26.5793 34.5316 25.8982V24.665H46.4633V24.6648ZM19.7322 22.1984C19.0511 22.1984 18.499 21.6463 18.499 20.9652C18.499 20.284 19.0511 19.7319 19.7322 19.7319H40.5869C42.3464 19.7289 43.9723 20.6706 44.8454 22.1985H19.7322V22.1984ZM24.1943 24.6648H32.065V25.898C32.065 27.9413 33.7214 29.5978 35.7648 29.5978H53.2464L56.6379 32.0644H20.4945L24.1943 24.6648ZM16.6491 34.531H41.9311V35.7642C41.9311 36.4454 41.379 36.9975 40.6979 36.9975H14.7992L16.6491 34.531ZM54.8804 51.7968C51.9285 51.8691 49.0215 51.0638 46.5275 49.4831C43.6726 47.6954 40.3558 46.7847 36.9882 46.8637C33.6226 46.7847 30.3078 47.6955 27.455 49.4831C24.9653 51.0622 22.0631 51.8675 19.1157 51.7968C16.1663 51.8679 13.2619 51.0628 10.7702 49.4831C9.06597 48.4537 7.20768 47.7042 5.26615 47.2633L10.2683 39.464H40.6979C42.7411 39.464 44.3977 37.8077 44.3977 35.7642V34.531H48.0975V38.2308C48.0975 38.912 48.6497 39.464 49.3307 39.464C50.0117 39.464 50.5639 38.912 50.5639 38.2308V34.531H53.0305V38.2308C53.0305 38.912 53.5826 39.464 54.2637 39.464C54.9448 39.464 55.4969 38.912 55.4969 38.2308V34.531H57.9635V38.2308C57.9635 38.912 58.5156 39.464 59.1967 39.464C59.8779 39.464 60.43 38.912 60.43 38.2308V34.5384H71.5182L57.3072 51.6389C56.5028 51.7451 55.692 51.7978 54.8804 51.7968Z" fill="black"/>
<path d="M72.7628 54.2633C69.3953 54.1842 66.0785 55.095 63.2236 56.8828C60.7323 58.4615 57.8291 59.2665 54.8805 59.1964C51.9303 59.2677 49.0251 58.4625 46.5325 56.8828C43.6762 55.0941 40.3575 54.1833 36.9883 54.2633C33.6227 54.1844 30.3079 55.0951 27.4551 56.8828C24.9654 58.4618 22.0632 59.2671 19.1158 59.1964C16.1664 59.2675 13.262 58.4624 10.7703 56.8828C7.91638 55.0949 4.60029 54.1839 1.23346 54.2633C0.552324 54.2633 0.000244141 54.8153 0.000244141 55.4965C0.000244141 56.1776 0.552324 56.7297 1.23346 56.7297C4.18247 56.6587 7.08638 57.4639 9.57783 59.0434C12.4322 60.8316 15.7487 61.7424 19.116 61.6629C22.4818 61.7421 25.7967 60.8309 28.6492 59.0422C31.1392 57.4639 34.0412 56.6592 36.9885 56.7298C39.9386 56.6586 42.8438 57.4637 45.3364 59.0435C48.1928 60.8322 51.5115 61.7429 54.8806 61.663C58.2482 61.7421 61.565 60.8313 64.4199 59.0435C66.9112 57.4648 69.8144 56.6598 72.763 56.7298C73.4441 56.7298 73.9962 56.1778 73.9962 55.4966C73.9962 54.8155 73.444 54.2633 72.7628 54.2633Z" fill="black"/>
</g>
<defs>
<clipPath id="clip0">
<rect width="74" height="74" fill="white"/>
</clipPath>
</defs>
</svg>
