<svg width="82" height="82" viewBox="0 0 82 82" fill="none" xmlns="http://www.w3.org/2000/svg">
  <path d="M19.2187 49.9688C18.4585 49.9688 17.7154 50.1942 17.0833 50.6166C16.4512 51.0389 15.9585 51.6392 15.6676 52.3416C15.3767 53.0439 15.3005 53.8168 15.4489 54.5624C15.5972 55.308 15.9633 55.9929 16.5008 56.5305C17.0384 57.068 17.7233 57.4341 18.4689 57.5824C19.2145 57.7307 19.9873 57.6546 20.6897 57.3637C21.392 57.0728 21.9924 56.5801 22.4147 55.948C22.8371 55.3159 23.0625 54.5727 23.0625 53.8125C23.0625 52.7931 22.6575 51.8154 21.9367 51.0946C21.2158 50.3737 20.2382 49.9688 19.2187 49.9688ZM19.2187 55.0938C18.9653 55.0938 18.7176 55.0186 18.5069 54.8778C18.2962 54.7371 18.132 54.5369 18.035 54.3028C17.9381 54.0687 17.9127 53.8111 17.9621 53.5626C18.0116 53.314 18.1336 53.0857 18.3128 52.9065C18.492 52.7273 18.7203 52.6053 18.9688 52.5559C19.2173 52.5064 19.4749 52.5318 19.7091 52.6288C19.9432 52.7258 20.1433 52.89 20.2841 53.1007C20.4249 53.3114 20.5 53.5591 20.5 53.8125C20.5 54.1523 20.365 54.4782 20.1247 54.7185C19.8844 54.9588 19.5586 55.0938 19.2187 55.0938Z" fill="black"/>
  <path d="M60.2188 49.9688C59.4585 49.9688 58.7154 50.1942 58.0833 50.6166C57.4512 51.0389 56.9585 51.6392 56.6676 52.3416C56.3767 53.0439 56.3005 53.8168 56.4489 54.5624C56.5972 55.308 56.9633 55.9929 57.5008 56.5305C58.0384 57.068 58.7233 57.4341 59.4689 57.5824C60.2145 57.7307 60.9873 57.6546 61.6897 57.3637C62.392 57.0728 62.9924 56.5801 63.4147 55.948C63.8371 55.3159 64.0625 54.5727 64.0625 53.8125C64.0625 52.7931 63.6575 51.8154 62.9367 51.0946C62.2159 50.3737 61.2382 49.9688 60.2188 49.9688ZM60.2188 55.0938C59.9653 55.0938 59.7176 55.0186 59.5069 54.8778C59.2962 54.7371 59.132 54.5369 59.035 54.3028C58.9381 54.0687 58.9127 53.8111 58.9621 53.5626C59.0116 53.314 59.1336 53.0857 59.3128 52.9065C59.492 52.7273 59.7203 52.6053 59.9688 52.5559C60.2173 52.5064 60.4749 52.5318 60.7091 52.6288C60.9432 52.7258 61.1433 52.89 61.2841 53.1007C61.4249 53.3114 61.5 53.5591 61.5 53.8125C61.5 54.1523 61.365 54.4782 61.1247 54.7185C60.8845 54.9588 60.5586 55.0938 60.2188 55.0938Z" fill="black"/>
  <path d="M54.7183 26.0004C54.2833 25.5028 53.7514 25.0993 53.155 24.8144C52.5586 24.5296 51.9104 24.3694 51.25 24.3438H14.0937C13.7906 24.3438 13.4974 24.4514 13.2661 24.6472C13.0348 24.8431 12.8804 25.1147 12.8304 25.4136L11.5492 33.1011C11.5185 33.2847 11.5281 33.4727 11.5775 33.6522C11.6268 33.8316 11.7146 33.9982 11.8349 34.1402C11.9551 34.2823 12.1048 34.3965 12.2737 34.4748C12.4425 34.5531 12.6264 34.5937 12.8125 34.5938H25.0946L28.5629 38.0621C28.8031 38.3024 29.129 38.4374 29.4687 38.4375H61.5C61.8398 38.4375 62.1657 38.3025 62.406 38.0622C62.6463 37.822 62.7812 37.4961 62.7812 37.1562V34.5938C62.7812 34.254 62.6461 33.9281 62.4058 33.6879L54.7183 26.0004ZM24.3437 32.0312H14.3256L15.179 26.9062H24.3437V32.0312ZM39.7187 35.875H29.9992L26.9062 32.7821V26.9062H39.7187V35.875ZM60.2187 35.875H42.2812V26.9062H51.25C51.5727 26.9388 51.8855 27.0358 52.1701 27.1913C52.4546 27.3469 52.7051 27.558 52.9066 27.8121L60.2187 35.1242V35.875Z" fill="black"/>
  <path d="M74.9224 33.4406L67.3169 30.9114L58.7158 22.3104C57.7376 21.327 56.5741 20.5474 55.2926 20.0167C54.0111 19.486 52.637 19.2148 51.25 19.2188H15.375C10.4166 19.2188 7.15321 21.9491 6.41649 26.7474L5.13524 36.9974C5.12796 37.05 5.12453 37.1031 5.12499 37.1563V46.3415C4.58839 46.529 4.10248 46.8382 3.70536 47.2448C3.34139 47.5986 3.05256 48.0222 2.85619 48.4903C2.65981 48.9583 2.55991 49.4612 2.56249 49.9688V51.25C2.56249 52.2694 2.96745 53.2471 3.6883 53.9679C4.40914 54.6888 5.38681 55.0938 6.40624 55.0938H10.3525C10.6588 57.2269 11.7239 59.178 13.3525 60.5894C14.981 62.0007 17.0637 62.7776 19.2187 62.7776C21.3737 62.7776 23.4565 62.0007 25.085 60.5894C26.7135 59.178 27.7786 57.2269 28.085 55.0938H51.3525C51.6588 57.2269 52.7239 59.178 54.3525 60.5894C55.981 62.0007 58.0637 62.7776 60.2187 62.7776C62.3737 62.7776 64.4565 62.0007 66.085 60.5894C67.7135 59.178 68.7786 57.2269 69.085 55.0938H78.1562C78.496 55.0938 78.8219 54.9588 79.0622 54.7185C79.3025 54.4782 79.4375 54.1523 79.4375 53.8125V39.7188C79.4374 38.3312 79.0015 36.9787 78.1914 35.8523C77.3813 34.7258 76.2378 33.8822 74.9224 33.4406ZM71.4412 34.9781L74.1075 35.875C74.7037 36.0749 75.2454 36.4103 75.6901 36.8549C76.1347 37.2996 76.4701 37.8413 76.67 38.4375H70.7506L71.4412 34.9781ZM7.68749 38.4375H8.96874C9.30855 38.4375 9.63444 38.5725 9.87472 38.8128C10.115 39.0531 10.25 39.3789 10.25 39.7188C10.25 40.0586 10.115 40.3845 9.87472 40.6247C9.63444 40.865 9.30855 41 8.96874 41H7.68749V38.4375ZM19.2187 60.2188C17.9517 60.2188 16.7131 59.843 15.6596 59.1391C14.6061 58.4352 13.785 57.4347 13.3001 56.2641C12.8153 55.0935 12.6884 53.8054 12.9356 52.5627C13.1828 51.32 13.7929 50.1785 14.6888 49.2826C15.5848 48.3867 16.7262 47.7765 17.9689 47.5294C19.2116 47.2822 20.4997 47.409 21.6703 47.8939C22.8409 48.3788 23.8414 49.1999 24.5453 50.2534C25.2493 51.3069 25.625 52.5455 25.625 53.8125C25.623 55.5109 24.9474 57.1392 23.7464 58.3402C22.5454 59.5411 20.9172 60.2167 19.2187 60.2188ZM60.2187 60.2188C58.9517 60.2188 57.7131 59.843 56.6596 59.1391C55.6061 58.4352 54.785 57.4347 54.3001 56.2641C53.8153 55.0935 53.6884 53.8054 53.9356 52.5627C54.1828 51.32 54.7929 50.1785 55.6888 49.2826C56.5848 48.3867 57.7262 47.7765 58.9689 47.5294C60.2116 47.2822 61.4997 47.409 62.6703 47.8939C63.8409 48.3788 64.8414 49.1999 65.5453 50.2534C66.2493 51.3069 66.625 52.5455 66.625 53.8125C66.623 55.5109 65.9474 57.1392 64.7464 58.3402C63.5454 59.5411 61.9172 60.2167 60.2187 60.2188ZM76.875 47.4063H70.4687V49.9688H76.875V52.5313H69.085C68.7786 50.3981 67.7135 48.447 66.085 47.0356C64.4565 45.6243 62.3737 44.8474 60.2187 44.8474C58.0637 44.8474 55.981 45.6243 54.3525 47.0356C52.7239 48.447 51.6588 50.3981 51.3525 52.5313H28.085C27.7786 50.3981 26.7135 48.447 25.085 47.0356C23.4565 45.6243 21.3737 44.8474 19.2187 44.8474C17.0637 44.8474 14.981 45.6243 13.3525 47.0356C11.7239 48.447 10.6588 50.3981 10.3525 52.5313H6.40624C6.06643 52.5313 5.74054 52.3963 5.50026 52.156C5.25998 51.9157 5.12499 51.5898 5.12499 51.25V49.9688C5.12443 49.798 5.15895 49.6289 5.22638 49.472C5.29382 49.315 5.39275 49.1736 5.51705 49.0565C5.6327 48.9382 5.7711 48.8445 5.92391 48.7811C6.07673 48.7177 6.2408 48.6858 6.40624 48.6875H10.25V46.125H7.68749V43.5625H8.96874C9.98816 43.5625 10.9658 43.1575 11.6867 42.4367C12.4075 41.7159 12.8125 40.7382 12.8125 39.7188C12.8125 38.6993 12.4075 37.7217 11.6867 37.0008C10.9658 36.28 9.98816 35.875 8.96874 35.875H7.85789L8.95336 27.101C9.32621 24.6743 10.7433 21.7813 15.375 21.7813H51.25C52.3004 21.7782 53.341 21.9836 54.3115 22.3854C55.2821 22.7872 56.1633 23.3775 56.9041 24.1221L65.7191 32.9371C65.8598 33.078 66.0313 33.1841 66.2201 33.2472L68.9915 34.1684L67.9319 39.4625C67.8939 39.6487 67.8977 39.841 67.9432 40.0255C67.9887 40.21 68.0747 40.382 68.1949 40.5292C68.315 40.6764 68.4665 40.795 68.6381 40.8764C68.8098 40.9578 68.9975 41 69.1875 41H76.875V47.4063Z" fill="black"/>
  <path d="M15.375 37.1562H17.9375V39.7188H15.375V37.1562Z" fill="black"/>
  <path d="M20.5 37.1562H23.0625V39.7188H20.5V37.1562Z" fill="black"/>
  <path d="M29.4688 47.4063H49.9688V49.9688H29.4688V47.4063Z" fill="black"/>
  <path d="M34.5938 41H39.7188V43.5625H34.5938V41Z" fill="black"/>
  <path d="M42.2812 41H47.4062V43.5625H42.2812V41Z" fill="black"/>
</svg>
