<svg width="23" height="23" viewBox="0 0 23 23" fill="none" xmlns="http://www.w3.org/2000/svg">
<g clip-path="url(#clip0)">
<path d="M20.6155 2.9955H19.1716V1.85119C19.1716 1.52168 18.9021 1.25208 18.5725 1.25208C18.243 1.25208 17.9734 1.52168 17.9734 1.85119V2.9955H12.1021V1.85119C12.1021 1.52168 11.8325 1.25208 11.503 1.25208C11.1735 1.25208 10.9039 1.52168 10.9039 1.85119V2.9955H4.97265V1.85119C4.97265 1.52168 4.70305 1.25208 4.37353 1.25208C4.04402 1.25208 3.77442 1.52168 3.77442 1.85119V2.9955H2.39047C1.07241 2.9955 0 4.10386 0 5.42191V19.3513C0 20.6754 1.06642 21.7478 2.39047 21.7478H20.6095C21.9336 21.7478 23 20.6754 23 19.3573V5.42191C23.006 4.10386 21.9336 2.9955 20.6155 2.9955ZM21.8078 19.3513C21.8078 20.0103 21.2805 20.5436 20.6215 20.5495H20.6155H2.39047C1.73144 20.5495 1.19823 20.0163 1.19823 19.3573V19.3513V5.42191C1.19823 4.75689 1.73144 4.19373 2.39047 4.19373H3.77442V5.06244C3.77442 5.39196 4.04402 5.66156 4.37353 5.66156C4.70305 5.66156 4.97265 5.39196 4.97265 5.06244V4.19373H10.9039V5.06244C10.9039 5.39196 11.1735 5.66156 11.503 5.66156C11.8325 5.66156 12.1021 5.39196 12.1021 5.06244V4.19373H17.9734V5.06244C17.9734 5.39196 18.243 5.66156 18.5725 5.66156C18.9021 5.66156 19.1716 5.39196 19.1716 5.06244V4.19373H20.6155C21.2805 4.19373 21.8078 4.76289 21.8078 5.42191V19.3513Z" fill="black"/>
<path d="M9.92735 8.08801H8.8789C8.54939 8.08801 8.27979 8.35761 8.27979 8.68713C8.27979 9.01664 8.54939 9.28624 8.8789 9.28624H9.92735C10.2569 9.28624 10.5265 9.01664 10.5265 8.68713C10.5265 8.35761 10.2569 8.08801 9.92735 8.08801Z" fill="black"/>
<path d="M14.0971 8.08801H13.0487C12.7192 8.08801 12.4496 8.35761 12.4496 8.68713C12.4496 9.01664 12.7192 9.28624 13.0487 9.28624H14.0971C14.4267 9.28624 14.6963 9.01664 14.6963 8.68713C14.6963 8.35761 14.4327 8.08801 14.0971 8.08801Z" fill="black"/>
<path d="M18.303 8.08801H17.2545C16.925 8.08801 16.6554 8.35761 16.6554 8.68713C16.6554 9.01664 16.925 9.28624 17.2545 9.28624H18.303C18.6325 9.28624 18.9021 9.01664 18.9021 8.68713C18.9021 8.35761 18.6325 8.08801 18.303 8.08801Z" fill="black"/>
<path d="M9.92735 12.2219H8.8789C8.54939 12.2219 8.27979 12.4915 8.27979 12.821C8.27979 13.1506 8.54939 13.4202 8.8789 13.4202H9.92735C10.2569 13.4202 10.5265 13.1506 10.5265 12.821C10.5265 12.4915 10.2569 12.2219 9.92735 12.2219Z" fill="black"/>
<path d="M5.72753 12.2219H4.67309C4.34358 12.2219 4.07397 12.4915 4.07397 12.821C4.07397 13.1506 4.34358 13.4202 4.67309 13.4202H5.72154C6.05105 13.4202 6.32065 13.1506 6.32065 12.821C6.32065 12.4915 6.05704 12.2219 5.72753 12.2219Z" fill="black"/>
<path d="M14.0971 12.2219H13.0487C12.7192 12.2219 12.4496 12.4915 12.4496 12.821C12.4496 13.1506 12.7192 13.4202 13.0487 13.4202H14.0971C14.4267 13.4202 14.6963 13.1506 14.6963 12.821C14.6963 12.4915 14.4327 12.2219 14.0971 12.2219Z" fill="black"/>
<path d="M18.303 12.2219H17.2545C16.925 12.2219 16.6554 12.4915 16.6554 12.821C16.6554 13.1506 16.925 13.4202 17.2545 13.4202H18.303C18.6325 13.4202 18.9021 13.1506 18.9021 12.821C18.9021 12.4915 18.6325 12.2219 18.303 12.2219Z" fill="black"/>
<path d="M9.92735 16.2959H8.8789C8.54939 16.2959 8.27979 16.5655 8.27979 16.895C8.27979 17.2245 8.54939 17.4941 8.8789 17.4941H9.92735C10.2569 17.4941 10.5265 17.2245 10.5265 16.895C10.5265 16.5655 10.2569 16.2959 9.92735 16.2959Z" fill="black"/>
<path d="M5.72753 16.2959H4.67309C4.34358 16.2959 4.07397 16.5655 4.07397 16.895C4.07397 17.2245 4.34358 17.4941 4.67309 17.4941H5.72154C6.05105 17.4941 6.32065 17.2245 6.32065 16.895C6.32065 16.5655 6.05704 16.2959 5.72753 16.2959Z" fill="black"/>
<path d="M14.0971 16.2959H13.0487C12.7192 16.2959 12.4496 16.5655 12.4496 16.895C12.4496 17.2245 12.7192 17.4941 13.0487 17.4941H14.0971C14.4267 17.4941 14.6963 17.2245 14.6963 16.895C14.6963 16.5655 14.4327 16.2959 14.0971 16.2959Z" fill="black"/>
</g>
<defs>
<clipPath id="clip0">
<rect width="23" height="23" fill="white"/>
</clipPath>
</defs>
</svg>
