<svg width="108" height="54" viewBox="0 0 108 54" fill="none" xmlns="http://www.w3.org/2000/svg">
  <path d="M20.25 31.4999C14.0491 31.4999 9.00009 36.5489 9.00009 42.7499C9.00009 48.9508 14.0491 54 20.25 54C26.451 54 31.5 48.951 31.5 42.7501C31.5 36.5491 26.451 31.4999 20.25 31.4999ZM20.25 49.5001C16.5285 49.5001 13.5 46.4716 13.5 42.7501C13.5 39.0285 16.5285 36.0001 20.25 36.0001C23.9716 36.0001 27 39.0285 27 42.7501C27 46.4714 23.9716 49.5001 20.25 49.5001Z" fill="black"/>
  <path d="M87.75 31.4999C81.5491 31.4999 76.5001 36.5489 76.5001 42.7499C76.5001 48.9508 81.5491 54 87.75 54C93.9509 54 98.9999 48.951 98.9999 42.7501C98.9999 36.5491 93.9509 31.4999 87.75 31.4999ZM87.75 49.5001C84.0284 49.5001 81 46.4716 81 42.7501C81 39.0285 84.0284 36.0001 87.75 36.0001C91.4716 36.0001 94.5 39.0285 94.5 42.7501C94.5 46.4714 91.4716 49.5001 87.75 49.5001Z" fill="black"/>
  <path d="M94.5 17.9999H90.693C89.3025 17.9999 87.939 17.523 86.8499 16.6499L69.12 2.46586C67.1311 0.8775 64.6336 0 62.0909 0H29.565C25.7941 0 22.2976 1.87207 20.2051 5.0085L16.3755 10.7595C15.228 12.474 13.311 13.5 11.2499 13.5C5.049 13.5 0 18.549 0 24.7499V33.75C0 39.9509 5.049 44.9999 11.2499 44.9999C12.4919 44.9999 13.5 43.9919 13.5 42.7499C13.5 41.5079 12.4919 40.5 11.2499 40.5C7.52836 40.5 4.49993 37.4716 4.49993 33.75V24.7499C4.49993 21.0284 7.52836 17.9999 11.2499 17.9999C14.823 17.9999 18.1349 16.227 20.1194 13.2524L23.949 7.50579C25.2045 5.62486 27.3061 4.49972 29.565 4.49972H62.0909C63.6209 4.49972 65.1149 5.02622 66.312 5.98029L84.0419 20.1597C85.9184 21.6673 88.2854 22.4996 90.6974 22.4996H94.5C101.102 22.4996 103.5 29.2271 103.5 33.7496C103.5 38.182 100.107 40.4996 96.7501 40.4996C95.5081 40.4996 94.5 41.5076 94.5 42.7496C94.5 43.9916 95.5081 44.9997 96.7501 44.9997C103.163 44.9999 108 40.1625 108 33.75C108 26.1134 103.271 17.9999 94.5 17.9999Z" fill="black"/>
  <path d="M78.7499 40.5H29.2501C28.0081 40.5 27 41.5081 27 42.7501C27 43.9921 28.0081 45.0001 29.2501 45.0001H78.7501C79.9921 45.0001 81.0002 43.9921 81.0002 42.7501C81.0002 41.5081 79.9919 40.5 78.7499 40.5Z" fill="black"/>
  <path d="M74.25 17.9999H54V11.2499C54 10.0079 52.9919 8.99988 51.7499 8.99988C50.5079 8.99988 49.4998 10.0079 49.4998 11.2499V20.25C49.4998 21.492 50.5079 22.5001 51.7499 22.5001H74.25C75.492 22.5001 76.5001 21.492 76.5001 20.25C76.5001 19.008 75.492 17.9999 74.25 17.9999Z" fill="black"/>
  <path d="M42.7501 17.9999H28.3905L31.266 12.258C31.8195 11.1466 31.3696 9.79657 30.2579 9.23842C29.1419 8.68493 27.7965 9.13043 27.2384 10.2465L22.7384 19.2466C22.3874 19.9395 22.4279 20.7721 22.8374 21.4336C23.2468 22.0951 23.9714 22.5001 24.7499 22.5001H42.7499C43.9919 22.5001 44.9999 21.492 44.9999 20.25C44.9999 19.008 43.9921 17.9999 42.7501 17.9999Z" fill="black"/>
  <path d="M60.75 27H56.2501C55.0081 27 54 28.0081 54 29.2501C54 30.4921 55.0081 31.5001 56.2501 31.5001H60.75C61.992 31.5001 63.0001 30.4921 63.0001 29.2501C63.0001 28.0081 61.992 27 60.75 27Z" fill="black"/>
</svg>
