<svg width="76" height="76" viewBox="0 0 76 76" fill="none" xmlns="http://www.w3.org/2000/svg">
  <g clip-path="url(#clip0)">
    <path d="M75.942 44.1809C75.942 41.8997 74.2387 39.9394 71.9799 39.621L66.5625 38.8571C65.4045 38.6938 64.38 37.9827 63.8221 36.9546L59.321 28.6606C60.5644 28.0309 61.4191 26.7413 61.4191 25.255V20.32C61.4191 17.2391 58.9125 14.7327 55.8318 14.7327H43.5946V12.0537C43.5946 10.9212 42.6732 10 41.5409 10H27.813C26.6807 10 25.7593 10.9214 25.7593 12.0537V14.7324H15.5474C14.9306 14.7324 14.4309 15.2323 14.4309 15.849C14.4309 16.4656 14.9306 16.9655 15.5474 16.9655H55.8318C57.6814 16.9655 59.186 18.4703 59.186 20.3197V20.9013H46.4255C45.8087 20.9013 45.3089 21.4012 45.3089 22.0178C45.3089 22.6345 45.8087 23.1344 46.4255 23.1344H59.186V25.2549C59.186 26.1276 58.4759 26.8375 57.6032 26.8375H45.9668C44.8002 26.8375 43.8512 27.7866 43.8512 28.9531V56.4972H41.3966V45.3388C41.3966 44.7222 40.8969 44.2223 40.2801 44.2223C39.6633 44.2223 39.1636 44.7222 39.1636 45.3388V56.4665H28.8764V29.7618C28.8764 29.3807 29.1864 29.0706 29.5677 29.0706H38.4724C38.8535 29.0706 39.1636 29.3807 39.1636 29.7618V40.8727C39.1636 41.4893 39.6633 41.9892 40.2801 41.9892C40.8969 41.9892 41.3966 41.4893 41.3966 40.8727V29.7618C41.3966 28.1494 40.0846 26.8375 38.4724 26.8375H29.5677C27.9553 26.8375 26.6433 28.1494 26.6433 29.7618V43.6643H2.23305V19.3723C2.23305 18.0452 3.31281 16.9655 4.63984 16.9655H11.0814C11.6982 16.9655 12.198 16.4656 12.198 15.849C12.198 15.2323 11.6982 14.7324 11.0814 14.7324H4.63984C2.08135 14.7324 0 16.8138 0 19.3723V53.2174C0 56.2572 2.47303 58.7304 5.51296 58.7304H6.6609C7.10304 63.0962 10.8184 66.5156 15.3217 66.5156C19.825 66.5156 23.5404 63.0962 23.9825 58.7304H26.6433V61.8446C26.6433 62.9677 27.5571 63.8813 28.6801 63.8813H39.3599C40.483 63.8813 41.3968 62.9677 41.3968 61.8446V58.7304L53.9175 58.7242C54.3568 63.0931 58.0734 66.5157 62.5788 66.5157C67.0851 66.5157 70.8022 63.0917 71.2403 58.7216L73.0128 58.7137C73.8133 58.7133 74.5651 58.4005 75.1299 57.8332C75.6945 57.2657 76.0036 56.5122 76.0002 55.7109L75.942 44.1809ZM27.9924 12.2331H41.3615V14.7324H27.9924V12.2331ZM73.7089 44.1864L73.726 47.5771H70.713C70.3437 47.5771 70.043 47.2765 70.043 46.907V41.6028L71.6682 41.8319C72.8315 41.9961 73.7089 43.0059 73.7089 44.1864ZM50.8276 29.0706H56.939L60.9804 36.5176H51.8305C51.2774 36.5176 50.8276 36.0676 50.8276 35.5146V29.0706ZM2.23305 53.2174V45.8974H26.6433V56.4972H23.919C23.2617 52.3653 19.6573 49.1957 15.3217 49.1957C10.9862 49.1957 7.38188 52.3652 6.72447 56.4972H5.51296C3.70449 56.4974 2.23305 55.0259 2.23305 53.2174ZM15.3217 64.2825C11.753 64.2825 8.84959 61.3995 8.84959 57.8558C8.84959 54.3121 11.753 51.4289 15.3217 51.4289C18.8904 51.4289 21.7939 54.3119 21.7939 57.8558C21.7939 61.3995 18.8904 64.2825 15.3217 64.2825ZM39.1636 61.6483H28.8764V58.7304H39.1637V61.6483H39.1636ZM62.5786 64.2825C59.0099 64.2825 56.1065 61.3995 56.1065 57.8558C56.1065 54.3121 59.0099 51.4289 62.5786 51.4289C66.1473 51.4289 69.0508 54.3119 69.0508 57.8558C69.0508 61.3995 66.1473 64.2825 62.5786 64.2825ZM73.5468 56.2578C73.404 56.4013 73.2139 56.4804 73.0071 56.4805L71.1742 56.4887C70.5133 52.361 66.911 49.1959 62.5786 49.1959C58.2453 49.1959 54.6425 52.3622 53.9826 56.491L50.8274 56.4927V45.3648C50.8274 44.7482 50.3276 44.2483 49.7109 44.2483C49.0941 44.2483 48.5944 44.7482 48.5944 45.3648V56.4939L46.0843 56.4953V29.0706H48.5944V35.5146C48.5944 37.2989 50.046 38.7505 51.8303 38.7505H62.3324C63.2728 39.9994 64.6844 40.8471 66.2507 41.068L67.8098 41.2879V46.9071C67.8098 48.5079 69.1121 49.8103 70.7129 49.8103H73.737L73.7668 55.7213C73.7677 55.9238 73.6896 56.1143 73.5468 56.2578Z" fill="black"/>
    <path d="M51.8407 39.9697H50.751C50.1342 39.9697 49.6345 40.4696 49.6345 41.0862C49.6345 41.7028 50.1342 42.2027 50.751 42.2027H51.8407C52.4575 42.2027 52.9572 41.7028 52.9572 41.0862C52.9572 40.4696 52.4575 39.9697 51.8407 39.9697Z" fill="black"/>
    <path d="M62.5786 54.0927C60.4948 54.0927 58.7995 55.7807 58.7995 57.8558C58.7995 59.9307 60.4948 61.6189 62.5786 61.6189C64.6623 61.6189 66.3576 59.9309 66.3576 57.8558C66.3576 55.7807 64.6623 54.0927 62.5786 54.0927ZM62.5786 59.3857C61.726 59.3857 61.0326 58.6993 61.0326 57.8556C61.0326 57.012 61.726 56.3256 62.5786 56.3256C63.4311 56.3256 64.1246 57.012 64.1246 57.8556C64.1246 58.6994 63.4311 59.3857 62.5786 59.3857Z" fill="black"/>
    <path d="M15.3217 54.0927C13.238 54.0927 11.5428 55.7807 11.5428 57.8558C11.5428 59.9307 13.238 61.6189 15.3217 61.6189C17.4054 61.6189 19.1008 59.9309 19.1008 57.8558C19.1008 55.7807 17.4054 54.0927 15.3217 54.0927ZM15.3217 59.3857C14.4693 59.3857 13.7758 58.6993 13.7758 57.8556C13.7758 57.012 14.4693 56.3256 15.3217 56.3256C16.1743 56.3256 16.8677 57.012 16.8677 57.8556C16.8677 58.6994 16.1741 59.3857 15.3217 59.3857Z" fill="black"/>
    <path d="M5.0957 29.0479V36.8391C5.0957 38.0579 6.08718 39.0495 7.30613 39.0495H21.5226C22.7416 39.0495 23.733 38.0579 23.733 36.8391V29.0479C23.733 27.8291 22.7416 26.8375 21.5226 26.8375H7.30598C6.08718 26.8375 5.0957 27.8291 5.0957 29.0479ZM21.4998 36.8163H15.5308V29.0706H21.4998V36.8163ZM7.32875 29.0706H13.2978V36.8163H7.32875V29.0706Z" fill="black"/>
  </g>
  <defs>
    <clipPath id="clip0">
      <rect width="76" height="76" fill="white"/>
    </clipPath>
  </defs>
</svg>
