<svg width="25" height="25" viewBox="0 0 25 25" fill="none" xmlns="http://www.w3.org/2000/svg">
<g clip-path="url(#clip0)">
<path d="M14.7904 12.5205L24.5249 2.7857C25.1584 2.15249 25.1584 1.12868 24.5249 0.495475C23.8917 -0.137733 22.8679 -0.137733 22.2347 0.495475L12.4999 10.2303L2.76536 0.495475C2.13185 -0.137733 1.10834 -0.137733 0.475129 0.495475C-0.158376 1.12868 -0.158376 2.15249 0.475129 2.7857L10.2096 12.5205L0.475129 22.2553C-0.158376 22.8885 -0.158376 23.9123 0.475129 24.5455C0.790696 24.8614 1.20562 25.0201 1.62024 25.0201C2.03487 25.0201 2.4495 24.8614 2.76536 24.5455L12.4999 14.8107L22.2347 24.5455C22.5506 24.8614 22.9652 25.0201 23.3798 25.0201C23.7944 25.0201 24.2091 24.8614 24.5249 24.5455C25.1584 23.9123 25.1584 22.8885 24.5249 22.2553L14.7904 12.5205Z" fill="black"/>
</g>
<defs>
<clipPath id="clip0">
<rect width="25" height="25" fill="white"/>
</clipPath>
</defs>
</svg>
