<svg width="18" height="18" viewBox="0 0 18 18" fill="none" xmlns="http://www.w3.org/2000/svg">
<path d="M1.65234 3.30469C2.56491 3.30469 3.30469 2.56491 3.30469 1.65234C3.30469 0.739779 2.56491 0 1.65234 0C0.739779 0 0 0.739779 0 1.65234C0 2.56491 0.739779 3.30469 1.65234 3.30469Z" fill="black"/>
<path d="M11.4672 10.0195C12.1433 10.0195 12.6914 9.47142 12.6914 8.79529C12.6914 8.11916 12.1433 7.57104 11.4672 7.57104C10.791 7.57104 10.2429 8.11916 10.2429 8.79529C10.2429 9.47142 10.791 10.0195 11.4672 10.0195Z" fill="black"/>
<path d="M16.5931 9.34608C17.2998 8.48362 17.6836 7.4096 17.6836 6.26931C17.6836 3.61002 15.5545 1.4465 12.9375 1.4465C11.858 1.4465 10.8097 1.82549 9.97397 2.50337C9.35005 1.67077 8.3655 1.16016 7.3125 1.16016C5.55061 1.16016 4.10298 2.55248 3.98099 4.3104C3.96647 4.31026 3.95202 4.31016 3.9375 4.31016C1.76636 4.31016 0 6.08825 0 8.27385C0 9.07752 0.243598 9.85433 0.704496 10.5202C1.04361 11.0102 1.48071 11.4142 1.98633 11.7085C1.81294 12.1632 1.72266 12.6503 1.72266 13.142C1.72266 15.3276 3.47323 17.1057 5.625 17.1057C6.84207 17.1057 7.96359 16.5355 8.69178 15.5953C9.60662 17.0651 11.2102 18 12.9375 18C14.2821 18 15.552 17.4611 16.5132 16.4826C17.472 15.5066 18 14.2185 18 12.8557C18 11.5567 17.4928 10.3043 16.5931 9.34608ZM8.60291 10.3707C8.54244 10.4428 8.47666 10.5107 8.40741 10.5724C8.0538 10.8873 7.60011 11.0537 7.09534 11.0537C5.83875 11.0537 4.81641 10.0314 4.81641 8.77479C4.81641 7.5182 5.83875 6.49586 7.09534 6.49586C7.55198 6.49586 7.9927 6.63057 8.36989 6.88539C8.61124 7.04844 8.67466 7.37624 8.51164 7.61759C8.34855 7.8589 8.02072 7.92232 7.77945 7.75934C7.5773 7.62275 7.34073 7.55058 7.09534 7.55058C6.4203 7.55058 5.87109 8.09979 5.87109 8.77482C5.87109 9.44986 6.4203 9.99907 7.09534 9.99907C7.34087 9.99907 7.54632 9.927 7.70593 9.78483C7.73712 9.75706 7.767 9.72622 7.7947 9.69314C7.98184 9.46997 8.31445 9.44075 8.53763 9.62786C8.7608 9.81489 8.79001 10.1475 8.60291 10.3707ZM9.18823 8.79529C9.18823 7.5387 10.2106 6.51635 11.4672 6.51635C12.7238 6.51635 13.7461 7.5387 13.7461 8.79529C13.7461 10.0519 12.7238 11.0742 11.4672 11.0742C10.2106 11.0742 9.18823 10.0519 9.18823 8.79529ZM14.6316 14.8388C14.2329 14.8438 13.9422 14.8461 13.7284 14.8461C13.1813 14.8461 13.1361 14.831 13.0655 14.8075C12.8983 14.7518 12.7679 14.6192 12.7168 14.4527C12.631 14.174 12.771 13.9906 12.9483 13.7585C13.0861 13.578 13.3427 13.2421 13.773 12.6272C13.9014 12.4438 13.9547 12.317 13.9765 12.2384L13.9803 12.2083C13.9694 12.1239 13.8971 12.0586 13.8098 12.0586C13.7168 12.0586 13.6545 12.1281 13.641 12.1967C13.5849 12.4825 13.3078 12.6687 13.0219 12.6125C12.7362 12.5564 12.55 12.2792 12.6061 11.9934C12.7188 11.4201 13.225 11.0039 13.8098 11.0039C14.4862 11.0039 15.0365 11.5542 15.0365 12.2306C15.0365 12.2529 15.0351 12.2753 15.0323 12.2974L15.0188 12.4031C15.0165 12.4207 15.0134 12.4381 15.0094 12.4554C14.9523 12.7017 14.8305 12.9557 14.6371 13.232C14.485 13.4494 14.3538 13.633 14.2414 13.788C14.3667 13.787 14.4945 13.7857 14.6184 13.7841C14.6206 13.7841 14.6229 13.7841 14.6251 13.7841C14.9133 13.7841 15.1487 14.0158 15.1523 14.3048C15.156 14.5961 14.9228 14.8351 14.6316 14.8388Z" fill="black"/>
</svg>
