<svg width="72" height="72" viewBox="0 0 72 72" fill="none" xmlns="http://www.w3.org/2000/svg">
<g clip-path="url(#clip0)">
<path d="M46.2634 48.2629H8.43484C5.24369 48.2629 2.64771 50.8589 2.64771 54.0499C2.64771 57.2411 5.24384 59.837 8.43484 59.837H46.2634C49.4546 59.837 52.0506 57.2409 52.0506 54.0499C52.0506 50.8591 49.4544 48.2631 46.2634 48.2629ZM46.2634 58.5885H8.43484C5.93227 58.5885 3.8962 56.5525 3.8962 54.0499C3.8962 51.5473 5.93227 49.5114 8.43484 49.5114H46.2634C48.766 49.5116 50.8021 51.5475 50.8021 54.0499C50.8021 56.5526 48.766 58.5885 46.2634 58.5885Z" fill="black"/>
<path d="M46.2436 45.5748H8.4924C3.80981 45.5748 0 49.3767 0 54.0499C0 54.1022 0.00646279 54.153 0.0185071 54.2015C0.100026 58.8049 3.87003 62.5251 8.4924 62.5251H46.2436C50.9168 62.5251 54.7188 58.7231 54.7188 54.0499C54.7188 49.3769 50.9168 45.575 46.2436 45.5748ZM46.2436 61.2766H8.4924C4.5075 61.2766 1.26568 58.0347 1.26568 54.0499C1.26568 54.0016 1.26024 53.9546 1.24981 53.9095C1.32516 49.9894 4.54525 46.8233 8.49254 46.8233H46.2437C50.2286 46.8235 53.4704 50.0653 53.4704 54.0499C53.4703 58.0347 50.2285 61.2766 46.2436 61.2766Z" fill="black"/>
<path d="M8.66992 50.5359C6.73226 50.5359 5.15564 52.1123 5.15564 54.0501C5.15564 55.9879 6.73212 57.5643 8.66992 57.5643C10.6076 57.5643 12.1842 55.9879 12.1842 54.0501C12.1842 52.1124 10.6077 50.5359 8.66992 50.5359ZM8.66992 56.3159C7.42055 56.3159 6.40413 55.2994 6.40413 54.0501C6.40413 52.8008 7.42055 51.7844 8.66992 51.7844C9.9193 51.7844 10.9357 52.8007 10.9357 54.0501C10.9357 55.2994 9.9193 56.3159 8.66992 56.3159Z" fill="black"/>
<path d="M21.1067 50.5359C19.1689 50.5359 17.5922 52.1123 17.5922 54.0501C17.5922 55.9879 19.1688 57.5643 21.1067 57.5643C23.0444 57.5643 24.621 55.9879 24.621 54.0501C24.621 52.1124 23.0445 50.5359 21.1067 50.5359ZM21.1067 56.3159C19.8572 56.3159 18.8407 55.2994 18.8407 54.0501C18.8407 52.8008 19.8572 51.7844 21.1067 51.7844C22.3561 51.7844 23.3725 52.8007 23.3725 54.0501C23.3725 55.2994 22.3561 56.3159 21.1067 56.3159Z" fill="black"/>
<path d="M33.5432 50.5358C31.6056 50.5358 30.0289 52.1122 30.0289 54.0501C30.0289 55.9879 31.6054 57.5644 33.5432 57.5644C35.4809 57.5644 37.0575 55.9879 37.0575 54.0501C37.0575 52.1122 35.4809 50.5358 33.5432 50.5358ZM33.5432 56.3159C32.2938 56.3159 31.2774 55.2994 31.2774 54.0501C31.2774 52.8007 32.2938 51.7843 33.5432 51.7843C34.7926 51.7843 35.809 52.8007 35.809 54.0501C35.809 55.2994 34.7926 56.3159 33.5432 56.3159Z" fill="black"/>
<path d="M45.98 50.5358C44.0423 50.5358 42.4657 52.1122 42.4657 54.0501C42.4657 55.9879 44.0422 57.5644 45.98 57.5644C47.9175 57.5644 49.494 55.9879 49.494 54.0501C49.494 52.1122 47.9175 50.5358 45.98 50.5358ZM45.98 56.3159C44.7306 56.3159 43.7142 55.2994 43.7142 54.0501C43.7142 52.8007 44.7306 51.7843 45.98 51.7843C47.2292 51.7843 48.2455 52.8007 48.2455 54.0501C48.2455 55.2994 47.2292 56.3159 45.98 56.3159Z" fill="black"/>
<path d="M70.2328 40.5137C70.2789 40.2267 70.3039 39.9327 70.3039 39.6329C70.3039 37.6842 69.2882 35.9697 67.7593 34.9869L63.1019 12.4338C63.1004 12.4269 63.0973 12.4209 63.0957 12.4141C63.0738 12.3141 63.0487 12.2142 63.0183 12.1146C62.4578 10.2772 60.6155 9.17261 58.7294 9.54789L38.6163 13.7096C37.8936 12.5922 36.5226 11.7843 35.2226 11.7843H16.4845C14.8719 11.7843 13.5598 13.0964 13.5598 14.709V19.0688H4.71312C3.72093 19.0688 2.91382 19.8759 2.91382 20.8681V40.5884C2.91382 40.6026 2.91426 40.6169 2.91529 40.6311C3.04043 42.4551 4.57108 43.8841 6.40005 43.8841H45.3142C47.2368 43.8841 48.8009 42.32 48.8009 40.3974C48.8009 39.9553 48.7173 39.5326 48.5665 39.143C48.5653 39.1397 48.5644 39.1361 48.5633 39.1326L42.7224 24.0815L52.9557 19.8894L59.9477 36.9743C59.5122 37.7635 59.2636 38.6697 59.2636 39.6332C59.2636 41.7731 60.4886 43.6313 62.2732 44.547L59.2793 54.0226C59.2609 54.0803 59.1992 54.1132 59.1409 54.0946L57.8235 53.6783C57.6342 53.6187 57.4271 53.6525 57.2666 53.7701C57.106 53.8878 57.0113 54.0747 57.0113 54.2736V56.4557C57.0113 56.7252 57.1842 56.9642 57.4402 57.0486C58.5575 57.4169 59.7255 57.6037 60.9117 57.6037C67.026 57.6037 72.0001 52.6294 72.0001 46.5153C71.9999 44.3732 71.3886 42.3047 70.2328 40.5137ZM14.8083 14.709C14.8083 13.7848 15.5602 13.0328 16.4845 13.0328H35.2225C36.2378 13.0328 37.406 13.8324 37.7732 14.7791L46.4335 37.096C46.0817 36.9764 45.7055 36.9105 45.3139 36.9105H43.2L35.7791 17.7872C35.3674 16.7269 34.154 15.8964 33.0169 15.8964H19.9778C18.7509 15.8964 17.7527 16.8945 17.7527 18.1215V19.0688H14.8081V14.709H14.8083ZM19.0013 19.1109V18.1215C19.0013 17.583 19.4393 17.1449 19.9778 17.1449H33.0169C33.642 17.1449 34.3889 17.6562 34.6152 18.239L40.4902 33.3782H23.9997C23.6548 33.3782 23.3754 33.6578 23.3754 34.0025C23.3754 34.3472 23.6548 34.6267 23.9997 34.6267H40.9748L41.861 36.9106H20.4171V20.8681C20.4171 20.0075 19.8097 19.2872 19.0013 19.1109ZM45.3141 42.6355H6.3999C5.23146 42.6355 4.25235 41.7279 4.16231 40.5656V39.5348C4.22664 39.5571 4.2945 39.5718 4.36662 39.5718H14.6483C14.9932 39.5718 15.2726 39.2923 15.2726 38.9476C15.2726 38.6028 14.9932 38.3233 14.6483 38.3233H4.36662C4.29465 38.3233 4.22664 38.338 4.16231 38.3603V27.7233H8.57742C8.9223 27.7233 9.20167 27.4438 9.20167 27.0991C9.20167 26.7543 8.9223 26.4748 8.57742 26.4748H4.16231V23.8066H14.2567C14.6016 23.8066 14.881 23.527 14.881 23.1823C14.881 22.8376 14.6016 22.5581 14.2567 22.5581H4.16231V20.8681C4.16231 20.5643 4.40951 20.3172 4.71312 20.3172H18.6178C18.9214 20.3172 19.1686 20.5643 19.1686 20.8681V37.5348C19.1686 37.8796 19.448 38.1591 19.7928 38.1591H42.7711C42.7717 38.1591 42.7723 38.1592 42.773 38.1592C42.7735 38.1592 42.7741 38.1591 42.7747 38.1591H45.3141C46.5482 38.1592 47.5523 39.1632 47.5523 40.3973C47.5523 41.6314 46.5482 42.6355 45.3141 42.6355ZM39.1493 14.8743L58.9773 10.7714C60.2277 10.5236 61.4515 11.2573 61.824 12.4789C62.1993 13.7089 61.5865 15.0037 60.399 15.4909L42.2706 22.9172L39.1493 14.8743ZM54.111 19.416L60.8725 16.6461C61.521 16.3801 62.0548 15.9537 62.4459 15.4306L66.351 34.3406C65.8538 34.1931 65.3282 34.1127 64.7838 34.1127C63.2276 34.1127 61.8208 34.7608 60.8162 35.8003L54.111 19.416ZM60.5119 39.633C60.5119 37.2775 62.4283 35.3611 64.7838 35.3611C67.1392 35.3611 69.0554 37.2775 69.0554 39.633C69.0554 41.9886 67.1392 43.9048 64.7838 43.9048C62.4283 43.9048 60.5119 41.9884 60.5119 39.633ZM60.9116 56.3548C60.0093 56.3548 59.1193 56.2332 58.2596 55.993V55.1252L58.7648 55.2847C59.111 55.3942 59.4787 55.3622 59.8009 55.1947C60.1228 55.0273 60.3605 54.7445 60.4699 54.3985L63.4432 44.9878C63.8727 45.0953 64.3216 45.1533 64.784 45.1533C66.9353 45.1533 68.8018 43.9154 69.7123 42.1152C70.3942 43.4744 70.7516 44.9732 70.7516 46.515C70.7515 51.9407 66.3374 56.3548 60.9116 56.3548Z" fill="black"/>
<path d="M67.2684 39.6331C67.2684 38.263 66.1537 37.1483 64.7838 37.1483C63.4137 37.1483 62.2988 38.263 62.2988 39.6331C62.2988 41.0032 63.4137 42.1179 64.7838 42.1179C66.1539 42.1179 67.2684 41.0032 67.2684 39.6331ZM63.5475 39.6331C63.5475 38.9514 64.1021 38.3968 64.7839 38.3968C65.4656 38.3968 66.0201 38.9514 66.0201 39.6331C66.0201 40.3147 65.4656 40.8694 64.7839 40.8694C64.1021 40.8694 63.5475 40.3147 63.5475 39.6331Z" fill="black"/>
</g>
<defs>
<clipPath id="clip0">
<rect width="72" height="72" fill="white"/>
</clipPath>
</defs>
</svg>
