<svg width="18" height="18" viewBox="0 0 18 18" fill="none" xmlns="http://www.w3.org/2000/svg">
<path d="M4.08447 4.64449H9.94643C10.0024 4.64449 10.056 4.62226 10.0956 4.58271C10.1351 4.54315 10.1574 4.48949 10.1574 4.43355V2.75273C10.1571 2.57354 10.0858 2.40175 9.95906 2.27508C9.83232 2.1484 9.6605 2.07718 9.48131 2.07703H4.54959C4.3704 2.07718 4.19859 2.14841 4.07185 2.27509C3.94511 2.40176 3.87379 2.57354 3.87354 2.75273V4.43355C3.87354 4.48949 3.89576 4.54315 3.93532 4.58271C3.97488 4.62226 4.02853 4.64449 4.08447 4.64449ZM4.29541 2.75273C4.29553 2.68539 4.32236 2.62084 4.37001 2.57326C4.41766 2.52567 4.48225 2.49893 4.54959 2.4989H9.48131C9.54865 2.49893 9.61323 2.52567 9.66089 2.57326C9.70854 2.62084 9.73537 2.68539 9.73549 2.75273V4.22261H4.29541V2.75273Z" fill="black"/>
<path d="M3.98889 6.7489C3.93295 6.7489 3.87929 6.77112 3.83974 6.81068C3.80018 6.85024 3.77795 6.90389 3.77795 6.95984V7.23511C3.77795 7.29106 3.80018 7.34471 3.83974 7.38427C3.87929 7.42383 3.93295 7.44605 3.98889 7.44605C4.04484 7.44605 4.09849 7.42383 4.13805 7.38427C4.17761 7.34471 4.19983 7.29106 4.19983 7.23511V6.95984C4.19983 6.90389 4.17761 6.85024 4.13805 6.81068C4.09849 6.77112 4.04484 6.7489 3.98889 6.7489Z" fill="black"/>
<path d="M3.98889 7.65381C3.93295 7.65381 3.87929 7.67603 3.83974 7.71559C3.80018 7.75515 3.77795 7.8088 3.77795 7.86475V11.9967C3.77795 12.0526 3.80018 12.1063 3.83974 12.1458C3.87929 12.1854 3.93295 12.2076 3.98889 12.2076C4.04484 12.2076 4.09849 12.1854 4.13805 12.1458C4.17761 12.1063 4.19983 12.0526 4.19983 11.9967V7.86475C4.19983 7.8088 4.17761 7.75515 4.13805 7.71559C4.09849 7.67603 4.04484 7.65381 3.98889 7.65381Z" fill="black"/>
<path d="M7.32422 6.7113C7.32422 6.76725 7.34644 6.8209 7.386 6.86046C7.42556 6.90002 7.47921 6.92224 7.53515 6.92224H12.291C12.3683 6.92233 12.4425 6.95311 12.4972 7.00781C12.5519 7.06251 12.5827 7.13668 12.5828 7.21404V14.3258C12.5827 14.4032 12.5519 14.4773 12.4972 14.532C12.4425 14.5867 12.3683 14.6175 12.291 14.6176H5.62993C5.55257 14.6175 5.4784 14.5867 5.42369 14.532C5.36899 14.4773 5.33822 14.4032 5.33813 14.3258V7.21404C5.33823 7.13668 5.369 7.06251 5.4237 7.00781C5.47841 6.95311 5.55257 6.92233 5.62993 6.92224H6.48047C6.53641 6.92224 6.59006 6.90002 6.62962 6.86046C6.66918 6.8209 6.6914 6.76725 6.6914 6.7113C6.6914 6.65536 6.66918 6.60171 6.62962 6.56215C6.59006 6.52259 6.53641 6.50037 6.48047 6.50037H5.62993C5.44072 6.50057 5.25931 6.57583 5.12552 6.70962C4.99172 6.84342 4.91646 7.02482 4.91626 7.21404V14.3258C4.91646 14.515 4.99172 14.6964 5.12552 14.8302C5.25931 14.964 5.44072 15.0393 5.62993 15.0395H12.291C12.4802 15.0393 12.6616 14.964 12.7954 14.8302C12.9292 14.6964 13.0045 14.515 13.0047 14.3258V7.21404C13.0045 7.02482 12.9292 6.84342 12.7954 6.70962C12.6616 6.57583 12.4802 6.50057 12.291 6.50037H7.53515C7.47921 6.50037 7.42556 6.52259 7.386 6.56215C7.34644 6.60171 7.32422 6.65536 7.32422 6.7113Z" fill="black"/>
<path d="M8.76696 13.6872C9.12416 13.6875 9.47509 13.5934 9.78423 13.4144C10.0934 13.2354 10.3497 12.978 10.5274 12.6681C10.7051 12.3582 10.7977 12.0069 10.7959 11.6497C10.7942 11.2925 10.6981 10.9421 10.5174 10.634L8.94903 7.95615C8.93043 7.92439 8.90385 7.89805 8.87191 7.87974C8.83998 7.86144 8.80382 7.85181 8.76701 7.85181C8.7302 7.85181 8.69404 7.86144 8.66211 7.87974C8.63018 7.89805 8.60359 7.92439 8.58499 7.95615L7.01632 10.634C6.83557 10.9421 6.73945 11.2926 6.7377 11.6498C6.73594 12.0071 6.8286 12.3584 7.00631 12.6683C7.18402 12.9782 7.44045 13.2357 7.74966 13.4146C8.05886 13.5935 8.40986 13.6876 8.7671 13.6872L8.76696 13.6872ZM7.38032 10.8472L8.76696 8.48008L10.1534 10.8473C10.3331 11.1539 10.406 11.5116 10.3608 11.8642C10.3155 12.2167 10.1545 12.5443 9.90317 12.7957C9.62687 13.0719 9.25939 13.238 8.86948 13.263C8.47956 13.2879 8.09393 13.1699 7.78471 12.9311C7.47549 12.6922 7.26388 12.3489 7.18946 11.9654C7.11503 11.5818 7.1829 11.1843 7.38036 10.8471L7.38032 10.8472Z" fill="black"/>
<path d="M9.0967 12.6C9.12 12.6 9.14314 12.5962 9.16518 12.5886C9.2516 12.5588 9.3344 12.5195 9.41205 12.4713C9.49148 12.4216 9.56504 12.3631 9.63132 12.2969C9.80181 12.1269 9.91804 11.9102 9.9653 11.6742C9.97415 11.6203 9.96173 11.565 9.93066 11.5201C9.89959 11.4751 9.85229 11.444 9.79873 11.4332C9.74516 11.4224 9.68951 11.4329 9.64348 11.4623C9.59746 11.4918 9.56465 11.5379 9.55197 11.5911C9.52104 11.7456 9.44492 11.8874 9.33326 11.9986C9.28969 12.0422 9.24133 12.0806 9.18912 12.1133C9.1385 12.1447 9.08451 12.1704 9.02818 12.1898C8.98108 12.2061 8.94127 12.2385 8.91582 12.2814C8.89036 12.3242 8.8809 12.3747 8.88911 12.4238C8.89732 12.473 8.92267 12.5177 8.96067 12.5499C8.99867 12.5822 9.04686 12.5999 9.0967 12.6Z" fill="black"/>
<path d="M15.5995 3.6806L12.5838 2.21634C12.5586 2.20408 12.5312 2.19699 12.5031 2.19547C12.4751 2.19395 12.4471 2.19803 12.4207 2.20749C12.3942 2.21694 12.37 2.23157 12.3493 2.25051C12.3286 2.26946 12.3119 2.29235 12.3001 2.31784L11.8793 3.23134L11.7075 3.14274V2.32912C11.7069 1.86238 11.5212 1.41493 11.1912 1.08493C10.8611 0.754932 10.4136 0.569331 9.94687 0.568848H4.04224C3.5755 0.569331 3.12802 0.754932 2.79795 1.08493C2.46788 1.41493 2.28219 1.86238 2.28162 2.32912V15.6709C2.28219 16.1377 2.46788 16.5851 2.79795 16.9151C3.12802 17.2451 3.5755 17.4307 4.04224 17.4312H13.879C14.3457 17.4307 14.7931 17.245 15.1231 16.915C15.4531 16.585 15.6387 16.1376 15.6392 15.6709V5.29982C15.6392 5.26111 15.6286 5.22313 15.6084 5.19007C15.5883 5.15701 15.5594 5.13012 15.525 5.11237L15.2513 4.97115L15.7003 3.95566C15.7224 3.90569 15.7243 3.84909 15.7055 3.79779C15.6867 3.74648 15.6487 3.70447 15.5995 3.6806ZM15.2174 15.6709C15.217 16.0258 15.0758 16.3659 14.8249 16.6169C14.574 16.8678 14.2338 17.0089 13.879 17.0093H4.04224C3.68735 17.009 3.34709 16.8679 3.09612 16.6169C2.84514 16.366 2.70394 16.0258 2.70349 15.6709V2.32912C2.70394 1.97423 2.84514 1.63401 3.09612 1.3831C3.34709 1.13219 3.68735 0.991076 4.04224 0.990723H9.94673C10.3016 0.991076 10.6419 1.13219 10.8929 1.3831C11.1438 1.63401 11.285 1.97423 11.2855 2.32912V3.27131C11.2855 3.31003 11.2962 3.34801 11.3163 3.38107C11.3365 3.41413 11.3653 3.44101 11.3997 3.45876L15.2174 5.42836V15.6709ZM14.8757 4.77737L12.2544 3.42491L12.5932 2.68986L15.2322 3.9712L14.8757 4.77737Z" fill="black"/>
</svg>
