<svg width="24" height="23" viewBox="0 0 24 23" fill="none" xmlns="http://www.w3.org/2000/svg">
<path d="M23.7442 14.5202C23.7332 14.5062 23.7218 14.4924 23.712 14.4773C23.6717 14.4142 23.6338 14.3488 23.5959 14.2828C23.5012 14.1193 23.3935 13.9338 23.2461 13.7612C23.028 13.5064 22.7984 13.2688 22.5761 13.0388C22.4931 12.9531 22.41 12.8674 22.3278 12.7807C22.087 12.2831 21.6694 12.0042 21.1494 11.9936C21.0716 11.992 20.9777 11.9778 20.8779 11.9635C20.7605 11.9461 20.6274 11.9266 20.4851 11.9217C20.1812 11.911 19.9132 11.9058 19.6662 11.9058C19.5084 11.9058 19.3508 11.9079 19.1935 11.9123C18.855 11.9224 18.5175 11.9469 18.1909 11.9702C18.0733 11.9783 17.9561 11.9868 17.8382 11.9949C17.5986 12.0107 17.3593 12.0294 17.1202 12.0481L17.0951 12.0502C17.0557 12.0533 17.0163 12.0557 16.9764 12.058C16.852 12.0655 16.7112 12.0741 16.5631 12.1016C16.5162 12.1102 16.4691 12.1177 16.4218 12.1252C16.2099 12.1587 15.9461 12.2005 15.6961 12.3356C15.3837 12.5044 15.1417 12.7485 14.9283 12.9635C14.7032 13.1907 14.4841 13.4252 14.2722 13.6521C14.1274 13.8074 13.9825 13.9624 13.8357 14.1154C13.8232 14.1283 13.8108 14.1413 13.7981 14.154C13.7659 14.0528 13.7213 13.9512 13.658 13.8528C13.3989 13.4511 13.0913 13.1047 12.7939 12.77C12.7334 12.7017 12.6728 12.6339 12.6127 12.5651C12.433 12.3597 12.2124 12.2252 12.0618 12.1421C11.5877 11.8796 11.113 11.5651 10.8535 11.0458C10.6676 10.6732 10.4649 10.3003 10.2517 9.93752C10.0451 9.58593 9.89178 9.20136 9.79581 8.79472C9.79007 8.76953 9.78509 8.74278 9.7816 8.71526C9.9192 8.72928 10.0493 8.73837 10.1745 8.74278C10.1954 8.74356 10.2163 8.74382 10.2373 8.74382C10.3562 8.74382 10.4661 8.7324 10.5631 8.72227C10.6381 8.71448 10.7089 8.70721 10.7663 8.70721C11.1945 8.7111 11.6315 8.715 12.063 8.7459C12.1635 8.75317 12.3988 8.77005 12.5155 8.83081C12.6127 8.88145 12.7521 9.05361 12.8271 9.14605C13.1006 9.48362 13.4608 9.66928 13.8414 9.66928C14.0842 9.66928 14.3218 9.5958 14.5471 9.45116C14.5908 9.42312 14.6344 9.39377 14.6775 9.36417C14.7705 9.30133 14.8583 9.24187 14.9216 9.2185C15.3257 9.06841 15.5964 8.76615 15.7043 8.34445C15.8419 7.80693 15.8728 7.35147 15.802 6.91185C15.7729 6.72904 15.6829 6.17257 15.103 5.9438C15.1035 5.94406 15.1038 5.94406 15.104 5.94406C15.1053 5.94406 15.0913 5.93549 15.0607 5.9116C14.9482 5.82383 14.8371 5.73476 14.7256 5.64544C14.5217 5.4821 14.3108 5.31306 14.0922 5.15232C13.9541 5.05079 13.8165 4.9638 13.6829 4.87941C13.5263 4.78048 13.3785 4.687 13.2554 4.5852C12.9929 4.36838 12.7301 4.14454 12.4699 3.91993C12.4846 3.87241 12.4938 3.82333 12.4973 3.77399C12.5496 3.7083 12.5903 3.63092 12.6152 3.54471C12.6997 3.24946 12.5733 2.93292 12.3123 2.78725L12.2844 2.77167C12.2959 2.52057 12.1657 2.27726 11.9404 2.15989C11.8362 2.10561 11.732 2.05082 11.628 1.99603C11.3548 1.85244 11.0726 1.70365 10.7867 1.56472C10.6317 1.48942 10.4801 1.46189 10.3694 1.4419C10.3547 1.4393 10.3405 1.4367 10.3255 1.43385C10.1645 1.36348 9.99025 1.2983 9.79107 1.27493C9.7644 1.13237 9.73673 0.991889 9.70507 0.848811C9.64798 0.590439 9.47623 0.446322 9.40294 0.384521L9.39247 0.375692C9.27481 0.258062 9.1195 0.194702 8.96096 0.194702C8.89714 0.194702 8.83233 0.204829 8.76951 0.226122C8.5459 0.301167 8.38162 0.501373 8.34498 0.743125L8.336 0.807524C8.32778 0.859717 8.3198 0.912171 8.31257 0.964624C8.30709 1.00669 8.30285 1.04902 8.29886 1.09134C8.29761 1.10433 8.29637 1.11965 8.29487 1.13367C8.26895 1.17522 8.23679 1.22975 8.20862 1.29804C8.14306 1.28402 8.07874 1.27701 8.01518 1.27701C7.85713 1.27701 7.70731 1.31804 7.55674 1.40243C7.40917 1.485 7.24913 1.5681 7.04571 1.66729C6.99361 1.65846 6.94401 1.65405 6.89515 1.65405C6.6491 1.65405 6.43248 1.76882 6.30085 1.96903C6.28091 1.99941 6.25873 2.03862 6.23878 2.08588C6.15278 2.13911 6.06379 2.20065 5.97654 2.2783L5.94737 2.30452C5.58392 2.62911 5.24065 2.93552 4.84305 3.10483C4.63838 3.19207 4.46812 3.31152 4.3183 3.41669C4.26471 3.45408 4.21111 3.49199 4.15677 3.52679C4.01617 3.61689 3.91521 3.76179 3.87682 3.92954C3.86685 3.97368 3.86137 4.01808 3.86037 4.06275C3.66344 4.25413 3.4862 4.48367 3.35283 4.77476C3.33837 4.80592 3.3269 4.83786 3.31743 4.87032C3.12299 5.02119 2.92805 5.18167 2.74408 5.36421C2.4751 5.63142 2.24352 5.93081 2.01941 6.22061C1.92294 6.34525 1.82472 6.47275 1.72027 6.60154C1.51237 6.85758 1.52583 7.23618 1.75118 7.47559C1.76839 7.49403 1.78683 7.51143 1.80578 7.52727C1.6779 7.71709 1.55051 7.91184 1.42986 8.11386C1.294 8.34133 1.20825 8.57971 1.13296 8.79004L1.1038 8.8708C1.03923 9.04893 1.04721 9.20733 1.05219 9.30211C1.05269 9.3125 1.05344 9.32289 1.05344 9.33301C1.04671 9.61164 1.20949 9.85521 1.44781 9.95259C1.42238 10.1097 1.45354 10.2702 1.53381 10.4039C1.52758 10.4164 1.52135 10.428 1.51586 10.4389C1.49642 10.4769 1.47722 10.515 1.45878 10.5532C1.44158 10.5893 1.42687 10.6256 1.41291 10.6625L1.40767 10.6763C1.35358 10.8121 1.29774 10.9482 1.2419 11.0837C1.11028 11.4034 0.974169 11.7337 0.856756 12.0762C0.734857 12.4337 0.637387 12.7955 0.543407 13.1447C0.512247 13.2605 0.481086 13.3766 0.449178 13.4916C0.416273 13.6106 0.411786 13.7149 0.408296 13.7843C0.407797 13.7965 0.407548 13.8082 0.406301 13.8204C0.374393 14.1663 0.609467 14.4766 0.939768 14.5254L0.960957 14.5282C0.92855 14.7251 0.918828 14.9349 0.941263 15.159C0.78247 15.3846 0.614952 15.5477 0.332264 15.7053C0.129348 15.8178 0.00271176 16.0377 0.00271176 16.2771V21.1337V21.1729C-0.00102749 21.2134 -0.000778205 21.2539 0.00271176 21.2934V21.4892V22.1563C0.00271176 22.5149 0.28166 22.8055 0.62592 22.8055H7.43609H8.16599C8.53518 22.8055 8.72489 22.5136 8.79942 22.3952C8.85052 22.356 8.90387 22.3165 8.95722 22.277C9.06042 22.2012 9.16711 22.1225 9.27007 22.0353C9.58616 21.7678 9.89627 21.4843 10.1962 21.2101C10.2455 21.1644 10.2951 21.1189 10.345 21.074C10.4118 21.0839 10.4786 21.0891 10.5447 21.0891C10.8268 21.0891 11.0961 21.0008 11.3451 20.8268C11.4877 20.7271 11.637 20.6328 11.7951 20.5331C11.9157 20.4568 12.0371 20.3802 12.1558 20.3007C12.2692 20.2251 12.3736 20.1467 12.4746 20.0714C12.5417 20.0208 12.6087 19.9704 12.677 19.9224C12.8396 19.8086 13.0013 19.6931 13.1629 19.5775C13.553 19.2986 13.9566 19.0099 14.3594 18.7544C14.5108 18.658 14.676 18.5718 14.8508 18.4799C15.2023 18.2955 15.5999 18.087 15.9466 17.7562C15.9568 17.7502 15.9676 17.7442 15.978 17.7385L16.0132 17.7193C16.0942 17.6731 16.1772 17.63 16.2602 17.5864C16.4654 17.4789 16.6778 17.3682 16.8859 17.2171C16.9281 17.1867 16.952 17.1797 16.9567 17.1797C16.9585 17.1797 16.9974 17.1805 17.0938 17.2402C17.196 17.3041 17.3361 17.3792 17.5161 17.3942C17.654 17.4059 17.7916 17.368 17.9294 17.3766C18.0384 17.3833 18.1463 17.3521 18.2545 17.3521C18.255 17.3521 18.2555 17.3521 18.256 17.3521C18.407 17.6118 18.5574 17.5677 18.7077 17.6536C18.8488 17.7344 18.9899 17.838 19.132 17.9169C19.2671 17.9922 19.2726 18.0291 19.2815 18.0673C19.3159 18.2192 19.386 18.5368 19.5961 18.8034C19.3321 18.8746 19.1437 19.127 19.1397 19.4256L19.1379 19.5352C19.135 19.7442 19.2279 19.9351 19.3768 20.0566C19.3765 20.2392 19.4503 20.4178 19.5867 20.5438C19.6051 20.5606 19.6243 20.577 19.6445 20.5918C19.656 20.6622 19.6791 20.7312 19.7133 20.7956C19.8242 21.0052 20.0346 21.1311 20.2587 21.1311C20.2699 21.1311 20.2814 21.1309 20.2926 21.1301C20.3153 21.1548 20.3415 21.1857 20.3619 21.209C20.4519 21.3134 20.5452 21.3856 20.6199 21.4432C20.6429 21.4609 20.6666 21.4783 20.6877 21.4975C21.0462 21.8151 21.4573 21.9221 21.7876 22.0083C21.8993 22.0371 22.0052 22.0646 22.0994 22.0976C22.168 22.1215 22.2408 22.1334 22.3148 22.1334C22.6174 22.1334 22.9891 21.9179 23.0878 21.557C23.1494 21.3313 23.1866 21.0958 23.1983 20.8569C23.2048 20.7253 23.1928 20.6063 23.1828 20.5108C23.1776 20.4625 23.1711 20.3968 23.1728 20.3737C23.3082 19.7198 23.1035 19.194 22.9378 18.8562L22.8702 18.7185C22.6872 18.3469 22.5142 17.9959 22.3744 17.6347C22.2804 17.3916 22.1109 17.0413 21.7248 16.8068C21.1302 16.4467 20.5162 16.0774 19.8993 15.7105C19.7988 15.651 19.7006 15.5991 19.6059 15.5495C19.472 15.4791 19.3451 15.4129 19.2474 15.3402C18.9253 15.1013 18.6022 14.8406 18.2896 14.5887C18.2512 14.5578 18.2126 14.5267 18.1742 14.4958C18.2891 14.489 18.4011 14.4843 18.5078 14.4802C18.5863 14.4776 18.6658 14.476 18.7448 14.476C18.9724 14.476 19.2097 14.4872 19.4675 14.5101C19.5749 14.9995 19.8502 15.3433 20.0573 15.5669C20.1767 15.6957 20.3377 15.7637 20.5008 15.7653C20.699 15.9227 20.9495 16.019 21.2008 16.019C21.2135 16.019 21.2259 16.0187 21.2384 16.0182C21.5059 16.1686 21.7961 16.2447 22.1029 16.2447C22.1852 16.2447 22.2699 16.2392 22.3545 16.228C22.416 16.22 22.4783 16.2153 22.5407 16.2104C22.7002 16.1977 22.8809 16.1834 23.0716 16.1299C23.3172 16.0611 23.5119 15.9255 23.6682 15.8167L23.7046 15.7913C24.0389 15.5599 24.0618 15.1 23.914 14.7845C23.8586 14.6679 23.7923 14.5825 23.7442 14.5202ZM23.3593 15.2509C23.2172 15.3491 23.0701 15.4581 22.9091 15.5033C22.7062 15.5604 22.4878 15.5565 22.2767 15.5843C22.2176 15.5918 22.1595 15.596 22.1024 15.596C21.8713 15.596 21.6545 15.5321 21.4501 15.3958C21.4137 15.3714 21.3616 15.3607 21.3119 15.3607C21.2928 15.3607 21.2743 15.3623 21.2569 15.3654C21.2387 15.3685 21.2195 15.3703 21.1998 15.3703C21.0223 15.3703 20.8079 15.2408 20.7421 15.0787C20.6788 14.9227 20.6062 14.7705 20.5245 14.5874C20.3726 14.7747 20.4564 14.9492 20.5048 15.1164C20.2809 14.8746 20.1002 14.6103 20.0548 14.2543C20.0269 14.0341 19.8506 13.8957 19.6527 13.8759C19.3511 13.8461 19.0467 13.8271 18.7436 13.8271C18.6568 13.8271 18.5706 13.8287 18.4843 13.8318C18.0339 13.8484 17.5799 13.8785 17.1379 13.9616C16.7413 14.0367 16.432 14.2963 16.2049 14.6508C16.062 14.8739 15.914 15.0933 15.7297 15.3724C15.8958 15.2898 16.0099 15.2371 16.1206 15.1769C16.408 15.0213 16.6915 14.8578 16.9814 14.7064C17.0495 14.6708 17.116 14.6552 17.1801 14.6552C17.3067 14.6552 17.4254 14.716 17.5378 14.8058C17.9855 15.1623 18.426 15.5285 18.8844 15.8692C19.1016 16.0302 19.3558 16.1356 19.5889 16.2748C20.1974 16.6368 20.8044 17.0011 21.4097 17.3682C21.6006 17.4838 21.7096 17.656 21.7953 17.8775C21.9643 18.3137 22.176 18.7326 22.3821 19.1519C22.5534 19.5009 22.6431 19.8499 22.5609 20.249C22.5235 20.4305 22.5845 20.6323 22.5751 20.8234C22.5658 21.0106 22.5364 21.1999 22.4871 21.3801C22.4746 21.4258 22.3719 21.4848 22.3138 21.4848C22.3068 21.4848 22.3001 21.484 22.2946 21.4819C21.887 21.3409 21.4373 21.3108 21.0903 21.0036C21.0028 20.9262 20.9004 20.8642 20.8248 20.7764C20.6922 20.6222 20.5631 20.4742 20.3502 20.4742C20.321 20.4742 20.2904 20.477 20.258 20.4825C20.2956 20.4391 20.3333 20.396 20.3826 20.3391C20.2345 20.2919 20.2752 20.0187 20.1234 20.0187C20.0917 20.0187 20.0513 20.0304 19.9992 20.0589C20.0443 19.9366 20.0802 19.8374 20.1279 19.7087C20.1468 19.7014 20.2099 19.6772 20.3163 19.6365C20.093 19.6001 19.9267 19.5736 19.7604 19.5469C19.7609 19.5103 19.7614 19.4744 19.7622 19.4378C19.805 19.4373 19.8514 19.4279 19.894 19.4279C19.9172 19.4279 19.9394 19.4308 19.9588 19.4391C20.0132 19.4622 20.0665 19.4734 20.1169 19.4734C20.256 19.4734 20.3729 19.388 20.4193 19.2296C20.4492 19.1265 20.4776 19.0208 20.4896 18.9146C20.5055 18.7671 20.4933 18.6362 20.3193 18.5729C20.0364 18.4695 19.9456 18.1891 19.8875 17.9312C19.8222 17.6427 19.6507 17.4934 19.4251 17.3682C19.115 17.1953 18.8091 17.0148 18.498 16.8437C18.44 16.8118 18.3672 16.8022 18.3001 16.797C18.0556 16.7783 17.8105 16.7689 17.5662 16.7482C17.5139 16.7437 17.4605 16.7136 17.4137 16.6845C17.2593 16.5882 17.109 16.5316 16.9565 16.5316C16.8176 16.5316 16.677 16.5786 16.5299 16.6851C16.2774 16.8679 15.988 16.9956 15.7158 17.1491C15.6552 17.1836 15.5899 17.2153 15.5405 17.2633C15.1028 17.6892 14.5337 17.8837 14.0349 18.2002C13.4518 18.5705 12.8954 18.9868 12.3285 19.3848C12.157 19.5051 11.9935 19.6388 11.8195 19.7549C11.548 19.9359 11.2648 20.1013 10.9976 20.2885C10.8518 20.3905 10.7005 20.4407 10.5444 20.4407C10.4671 20.4407 10.3884 20.4282 10.3086 20.4038C10.2787 20.3947 10.2525 20.3903 10.2286 20.3903C10.1645 20.3903 10.1161 20.4207 10.0568 20.4744C9.66842 20.827 9.27705 21.1937 8.87745 21.5318C8.71766 21.6671 8.52571 21.8585 8.36342 21.9904C8.29736 22.0441 8.2323 22.2867 8.16649 22.2867H7.43659H0.501278V21.49V21.2288L0.498786 21.2334C0.499533 21.2298 0.501278 21.2264 0.501278 21.2228V21.1335V16.2768C0.999845 15.9995 1.30771 15.6804 1.54528 15.2893C1.64549 15.1239 1.92469 14.9962 2.03362 14.8349C2.09545 14.743 2.12386 14.6165 2.16574 14.5085C2.17846 14.4763 2.21734 14.4521 2.24227 14.4241C2.19366 14.3779 2.14854 14.3322 2.08223 14.2699C2.01966 14.427 1.9713 14.555 1.89726 14.7409C1.89751 14.5978 1.89876 14.5168 1.89901 14.4361C1.87957 14.4303 1.86037 14.4244 1.84093 14.4187C1.75767 14.6809 1.67441 14.9434 1.58117 15.2369C1.41091 14.2753 2.03861 13.6544 2.41428 12.9037C2.36193 12.9323 2.33077 12.9497 2.31207 12.9603C2.48433 12.4659 2.66032 11.9606 2.83656 11.4561C2.81363 11.4436 2.7907 11.4314 2.76776 11.4189C2.70669 11.4914 2.64536 11.5636 2.58404 11.636C2.57631 11.6298 2.56858 11.6238 2.56086 11.6176C2.59376 11.5594 2.62667 11.5013 2.65932 11.4434C2.64187 11.4283 2.62467 11.4132 2.60722 11.3982C2.46438 11.5776 2.32379 11.7594 2.17746 11.9359C2.11289 12.0136 2.0259 12.0725 1.96956 12.1551C1.91671 12.2322 1.87583 12.3255 1.85738 12.4176C1.82398 12.5843 1.81126 12.7557 1.78982 12.925C1.76938 12.9281 1.74919 12.9315 1.72875 12.9346C1.70158 12.8167 1.67366 12.6989 1.64798 12.5872C1.47523 12.6856 1.39147 12.8926 1.26882 13.588C1.24414 13.4911 1.22943 13.4327 1.19877 13.3119C1.15839 13.5482 1.12922 13.7207 1.09981 13.8928L1.02752 13.8822C1.03375 13.8118 1.03026 13.7386 1.0487 13.6718C1.17634 13.2112 1.29051 12.7451 1.44457 12.2938C1.60336 11.8297 1.80279 11.3803 1.98426 10.9245C1.99473 10.898 2.00371 10.8705 2.01617 10.8448C2.14331 10.5815 2.3188 10.3294 2.16824 10.0009C2.15029 10.011 2.11464 10.0313 2.06304 10.0603C2.19441 9.6763 2.32105 9.30756 2.45416 8.91884C2.4063 8.92741 2.37365 8.93312 2.34498 8.93831C2.36467 8.51739 2.57407 8.1915 2.83706 7.90638C2.78746 7.83679 2.74657 7.77967 2.68675 7.69527C2.23953 8.17151 1.80503 8.64463 1.6769 9.34652C1.67914 9.26394 1.6607 9.17332 1.68687 9.10035C1.76664 8.88093 1.84143 8.65372 1.95959 8.45611C2.17821 8.08997 2.42525 7.74201 2.66256 7.38782C2.69373 7.34108 2.73635 7.30265 2.77449 7.26136C2.87446 7.1536 2.95622 7.07232 2.94151 6.87394C2.9283 6.69373 3.05668 6.47612 3.17559 6.31824C3.3471 6.09025 3.56746 5.90225 3.76514 5.69529C3.8327 5.62466 3.89527 5.54832 3.96607 5.46808C3.67914 5.50288 3.48096 5.63116 3.2758 5.96301C3.00882 6.3964 2.60673 6.67165 2.19566 7.02039C2.54241 6.59401 2.82634 6.17906 3.17459 5.83422C3.5191 5.49249 3.92793 5.2214 4.30883 4.91914C4.30235 4.90226 4.29612 4.88512 4.28964 4.86825C4.16549 4.93005 4.0416 4.99159 3.91596 5.05417C4.15777 4.52574 4.62816 4.25101 5.0861 3.95758C5.04397 3.92227 5.01729 3.90019 4.97691 3.90019C4.90936 3.90019 4.80191 3.96303 4.51474 4.13208C4.50452 4.11468 4.4943 4.09754 4.48408 4.08015C4.68201 3.95343 4.86797 3.79659 5.08011 3.70596C5.58267 3.49173 5.98003 3.13131 6.38337 2.77167C6.50876 2.65975 6.66556 2.586 6.82585 2.48343C6.77923 2.35801 6.80864 2.30374 6.89614 2.30374C6.93229 2.30374 6.97841 2.31309 7.03325 2.33049C7.04746 2.3349 7.06316 2.33698 7.08011 2.33698C7.12399 2.33698 7.17285 2.3227 7.21099 2.30426C7.42762 2.20013 7.643 2.09237 7.85289 1.97474C7.91098 1.94228 7.96208 1.9267 8.01617 1.9267C8.0603 1.9267 8.10616 1.93709 8.15976 1.95682C8.20089 1.97188 8.24352 1.97916 8.28615 1.97916C8.50128 1.97916 8.71965 1.79998 8.7735 1.58342C8.79344 1.50318 8.86548 1.43748 8.88867 1.35751C8.91634 1.26143 8.91683 1.15678 8.93079 1.05603C8.94027 0.985398 8.95198 0.915287 8.96245 0.844657C9.00957 0.894513 9.08635 0.937099 9.09931 0.995265C9.16637 1.2983 9.21722 1.60549 9.2773 1.93086C9.37477 1.92748 9.4852 1.91398 9.59788 1.91398C9.63851 1.91398 9.67939 1.9158 9.72003 1.92021C9.86336 1.93657 10.0025 1.99551 10.1406 2.05732C10.2692 2.08796 10.4073 2.09679 10.524 2.15365C10.9076 2.3401 11.2838 2.5442 11.6627 2.74129C11.657 2.75817 11.6515 2.77504 11.6457 2.79192C11.5079 2.75089 11.3703 2.70987 11.2197 2.66546C11.386 3.03705 11.7063 3.18558 12.0184 3.36008C11.9342 3.35229 11.8502 3.34476 11.7432 3.33489C11.7801 3.38553 11.806 3.42084 11.8377 3.46395C11.7916 3.45694 11.7589 3.45174 11.7128 3.44447C11.7706 3.54289 11.8235 3.63273 11.8766 3.72258C11.8639 3.73868 11.8511 3.75426 11.8389 3.76984C11.554 3.57898 11.2698 3.38787 10.954 3.17597C11.0225 3.27283 11.0709 3.34035 11.1529 3.45538C11.0514 3.39669 10.9941 3.36346 10.9375 3.33048C10.9268 3.33983 10.9158 3.34917 10.9051 3.35878C10.9383 3.40345 10.9649 3.45616 11.0056 3.49147C11.6243 4.02873 12.2375 4.57378 12.8692 5.09494C13.1377 5.3167 13.4523 5.47665 13.7332 5.68335C14.0583 5.92251 14.3687 6.18321 14.6875 6.43172C14.7476 6.47872 14.8129 6.5239 14.8827 6.55143C15.0931 6.63426 15.1539 6.80694 15.1881 7.02013C15.2519 7.41587 15.1998 7.79914 15.1028 8.178C15.0495 8.38703 14.9248 8.52907 14.7132 8.60775C14.5382 8.67267 14.3821 8.79602 14.2211 8.89936C14.0935 8.98142 13.9661 9.02089 13.8424 9.02089C13.6452 9.02089 13.4595 8.91936 13.3045 8.72798C13.1574 8.54647 12.9929 8.3538 12.7954 8.25097C12.5918 8.14476 12.3405 8.08867 12.1072 8.07179C11.6647 8.0396 11.2205 8.00402 10.7777 8.00402C10.7737 8.00402 10.7703 8.00402 10.7665 8.00402C10.5903 8.00402 10.4135 8.06764 10.2375 8.06764C10.2233 8.06764 10.2096 8.08088 10.1959 8.08036C9.94239 8.07154 9.68886 8.04868 9.43809 8.00947C9.42363 8.0074 9.40967 8.00947 9.39596 8.00947C9.27281 8.00947 9.16936 8.09958 9.15689 8.29096C9.14244 8.50882 9.14144 8.73889 9.19104 8.9487C9.30123 9.41663 9.47672 9.86118 9.72077 10.2761C9.92593 10.6251 10.1199 10.9822 10.3011 11.3452C10.6264 11.997 11.1709 12.3839 11.7699 12.7152C11.908 12.7913 12.0488 12.8835 12.1528 13.0022C12.496 13.3943 12.8588 13.7765 13.1409 14.2143C13.2778 14.4262 13.2509 14.7528 13.2992 15.0273C13.3224 15.1569 13.3476 15.2857 13.3832 15.4752C13.7088 15.1473 13.9965 14.865 14.2762 14.5739C14.6404 14.1948 14.9919 13.8022 15.3618 13.4293C15.5525 13.2372 15.7517 13.0362 15.9833 12.911C16.1867 12.8009 16.439 12.7835 16.6725 12.7401C16.8266 12.7116 16.9854 12.709 17.1419 12.6968C17.3872 12.6776 17.6328 12.6583 17.8781 12.6417C18.3225 12.6126 18.7668 12.5742 19.212 12.5607C19.3633 12.5563 19.5154 12.5542 19.6669 12.5542C19.9329 12.5542 20.1994 12.5605 20.4649 12.5698C20.6897 12.5776 20.9133 12.6376 21.1379 12.642C21.4513 12.6485 21.6492 12.8082 21.7794 13.0876C21.7943 13.1198 21.8088 13.1554 21.8322 13.18C22.149 13.5173 22.4806 13.8409 22.7817 14.1927C22.945 14.3833 23.0569 14.6217 23.1943 14.8367C23.2451 14.9164 23.3147 14.9847 23.3541 15.0694C23.3778 15.1218 23.3857 15.2325 23.3593 15.2509Z" fill="black"/>
</svg>
