<svg width="20" height="20" viewBox="0 0 20 20" fill="none" xmlns="http://www.w3.org/2000/svg">
<g clip-path="url(#clip0)">
<path d="M8.15279 2.205C8.61465 1.52581 9.02217 0.900944 9.40252 0.330418C9.45685 0.248914 9.53835 0.167411 9.61986 0.113075C9.94587 -0.104268 10.3806 0.00440316 10.5979 0.330418C10.9511 0.900944 11.3586 1.49864 11.8476 2.205C13.9939 5.35648 17.1997 10.1109 17.1997 12.8277C17.1997 14.8109 16.3847 16.604 15.0806 17.9081C13.7765 19.185 11.9835 20 10.0002 20C8.01695 20 6.22387 19.185 4.91981 17.8809C3.61575 16.5768 2.80071 14.7837 2.80071 12.8005C2.80071 10.0837 6.00653 5.35648 8.15279 2.205ZM5.89785 16.9028C6.9574 17.9624 8.3973 18.5873 10.0002 18.5873C11.6031 18.5873 13.043 17.9352 14.1026 16.9028C15.1621 15.8433 15.787 14.4034 15.787 12.8005C15.787 10.5184 12.717 5.98134 10.6794 2.96571C10.4349 2.61252 10.2176 2.25934 10.0002 1.96049C9.78287 2.25934 9.56552 2.61252 9.32101 2.96571C7.28342 6.00851 4.21344 10.5184 4.21344 12.8005C4.21344 14.4034 4.86547 15.8433 5.89785 16.9028Z" fill="black"/>
<path d="M5.78892 12.3114C6.16927 12.2842 6.49528 12.5831 6.52245 12.9634C6.54962 13.5611 6.7398 14.1317 7.03864 14.6207C7.33749 15.1097 7.77218 15.5444 8.28837 15.8161C8.61439 16.0062 8.75023 16.4409 8.56005 16.7669C8.34271 17.1473 7.90802 17.256 7.582 17.0658C6.84847 16.6583 6.25077 16.0606 5.84325 15.3814C5.40856 14.7022 5.16405 13.8871 5.13689 13.0449C5.10972 12.6646 5.40857 12.3386 5.78892 12.3114Z" fill="black"/>
</g>
<defs>
<clipPath id="clip0">
<rect width="20" height="20" fill="white" transform="matrix(-1 0 0 1 20 0)"/>
</clipPath>
</defs>
</svg>
