<svg width="26" height="26" viewBox="0 0 26 26" fill="none" xmlns="http://www.w3.org/2000/svg">
<g clip-path="url(#clip0)">
<path d="M8.27245 0.0205379C7.98467 -0.0607613 7.68548 0.10656 7.60402 0.394281L0.56253 25.3105C0.481231 25.5982 0.648552 25.8974 0.936273 25.9789C0.984209 25.9926 1.03377 25.9997 1.08359 26C1.32611 25.9999 1.53893 25.8386 1.60464 25.6052L8.64619 0.688958C8.72749 0.401187 8.56017 0.101989 8.27245 0.0205379Z" fill="black"/>
<path d="M25.4376 25.311L18.396 0.394809C18.3147 0.106885 18.0153 -0.0605879 17.7273 0.0208129C17.4394 0.102163 17.2719 0.401563 17.3533 0.689487L24.3949 25.6056C24.4608 25.839 24.674 26.0001 24.9165 25.9999C24.9663 25.9998 25.0159 25.9929 25.0638 25.9794C25.3515 25.898 25.5188 25.5988 25.4376 25.311Z" fill="black"/>
<path d="M13 20.5834C12.7009 20.5834 12.4584 20.8259 12.4584 21.1251V25.4583C12.4584 25.7574 12.7009 26 13 26C13.2992 26 13.5417 25.7574 13.5417 25.4583V21.1251C13.5417 20.8259 13.2992 20.5834 13 20.5834Z" fill="black"/>
<path d="M13 11.9169C12.7009 11.9169 12.4584 12.1594 12.4584 12.4585V16.7918C12.4584 17.0909 12.7009 17.3334 13 17.3334C13.2992 17.3334 13.5417 17.0909 13.5417 16.7918V12.4585C13.5417 12.1594 13.2992 11.9169 13 11.9169Z" fill="black"/>
<path d="M13 4.33374C12.7009 4.33374 12.4584 4.57627 12.4584 4.87541V8.12535C12.4584 8.4245 12.7009 8.66702 13 8.66702C13.2992 8.66702 13.5417 8.4245 13.5417 8.12535V4.87541C13.5417 4.57627 13.2992 4.33374 13 4.33374Z" fill="black"/>
<path d="M13 0.000488281C12.7009 0.000488281 12.4584 0.243015 12.4584 0.542161V1.62546C12.4584 1.9246 12.7009 2.16713 13 2.16713C13.2992 2.16713 13.5417 1.9246 13.5417 1.62546V0.542111C13.5417 0.242964 13.2992 0.000488281 13 0.000488281Z" fill="black"/>
</g>
<defs>
<clipPath id="clip0">
<rect width="26" height="26" fill="white"/>
</clipPath>
</defs>
</svg>
