<svg width="62" height="62" viewBox="0 0 62 62" fill="none" xmlns="http://www.w3.org/2000/svg">
<path d="M14.0326 50.4035C15.2808 50.4035 16.5011 50.0334 17.5389 49.3399C18.5768 48.6464 19.3858 47.6607 19.8635 46.5075C20.3412 45.3543 20.4661 44.0853 20.2226 42.8611C19.9791 41.6368 19.378 40.5123 18.4954 39.6296C17.6128 38.747 16.4882 38.1459 15.2639 37.9024C14.0397 37.6589 12.7707 37.7839 11.6175 38.2616C10.4643 38.7393 9.4786 39.5482 8.78513 40.5861C8.09166 41.624 7.72153 42.8442 7.72156 44.0924C7.72348 45.7656 8.38901 47.3697 9.57214 48.5529C10.7553 49.736 12.3594 50.4015 14.0326 50.4035ZM14.0326 39.7188C14.8976 39.7187 15.7433 39.9752 16.4625 40.4558C17.1818 40.9364 17.7424 41.6194 18.0734 42.4186C18.4045 43.2178 18.4911 44.0972 18.3224 44.9456C18.1536 45.794 17.7371 46.5733 17.1254 47.185C16.5138 47.7967 15.7344 48.2133 14.886 48.382C14.0376 48.5508 13.1582 48.4642 12.359 48.1332C11.5598 47.8021 10.8768 47.2416 10.3962 46.5223C9.91557 45.8031 9.65906 44.9575 9.65906 44.0924C9.66034 42.9329 10.1215 41.8212 10.9414 41.0012C11.7614 40.1813 12.873 39.7201 14.0326 39.7188Z" fill="black"/>
<path d="M47.5806 51.3438C48.3692 51.3438 49.1401 51.11 49.7958 50.6719C50.4514 50.2338 50.9625 49.6111 51.2643 48.8826C51.566 48.154 51.645 47.3524 51.4912 46.5789C51.3373 45.8055 50.9576 45.0951 50.4 44.5375C49.8424 43.9799 49.132 43.6002 48.3586 43.4463C47.5851 43.2925 46.7835 43.3715 46.0549 43.6732C45.3264 43.975 44.7037 44.4861 44.2656 45.1417C43.8275 45.7974 43.5937 46.5683 43.5938 47.3569C43.595 48.4139 44.0154 49.4272 44.7628 50.1747C45.5103 50.9221 46.5236 51.3425 47.5806 51.3438ZM47.5806 45.3073C47.986 45.3073 48.3823 45.4275 48.7193 45.6527C49.0564 45.8779 49.3191 46.198 49.4742 46.5725C49.6294 46.947 49.67 47.359 49.5909 47.7566C49.5118 48.1542 49.3167 48.5194 49.03 48.806C48.7434 49.0927 48.3782 49.2879 47.9806 49.367C47.5831 49.4461 47.171 49.4055 46.7965 49.2504C46.422 49.0953 46.1019 48.8326 45.8767 48.4955C45.6515 48.1585 45.5313 47.7622 45.5313 47.3569C45.5319 46.8135 45.748 46.2926 46.1322 45.9084C46.5164 45.5242 47.0373 45.308 47.5806 45.3073Z" fill="black"/>
<path d="M57.1562 41.6562H56.1875V33.7345C56.1858 32.239 55.591 30.8052 54.5335 29.7477C53.476 28.6902 52.0422 28.0954 50.5467 28.0937H45.5312V24.2187C45.5312 23.9618 45.4292 23.7154 45.2475 23.5337C45.0658 23.3521 44.8194 23.25 44.5625 23.25H43.5937V18.9247L46.0686 17.2747C46.2809 17.1316 46.4279 16.9102 46.4774 16.659C46.5269 16.4078 46.475 16.1472 46.3329 15.9342C46.1909 15.7212 45.9703 15.573 45.7194 15.5222C45.4685 15.4713 45.2076 15.5218 44.9938 15.6627L42.0876 17.6002C41.9549 17.6887 41.8461 17.8086 41.7709 17.9492C41.6956 18.0898 41.6562 18.2468 41.6562 18.4062V23.25H40.6875C40.4306 23.25 40.1841 23.3521 40.0025 23.5337C39.8208 23.7154 39.7187 23.9618 39.7187 24.2187V28.0937H37.5334L32.2859 10.6021C32.476 10.5362 32.641 10.4128 32.7577 10.2489C32.8745 10.085 32.9373 9.88875 32.9375 9.6875V7.50781C32.9367 6.8015 32.6557 6.12436 32.1563 5.62492C31.6569 5.12549 30.9797 4.84455 30.2734 4.84375H12.3515C11.6452 4.84455 10.9681 5.12549 10.4687 5.62492C9.96922 6.12436 9.68828 6.8015 9.68748 7.50781V9.6875C9.6877 9.9013 9.75865 10.109 9.88926 10.2783C10.0199 10.4476 10.2028 10.5689 10.4096 10.6233L6.85946 25.7118L2.16199 31.3486C2.04413 31.4901 1.96902 31.6622 1.94546 31.8448C1.92191 32.0274 1.95087 32.2129 2.02897 32.3797C2.10707 32.5464 2.23107 32.6874 2.38644 32.7862C2.54181 32.885 2.72211 32.9375 2.90623 32.9375H7.74998C7.8772 32.9375 8.00318 32.9125 8.12071 32.8638C8.23825 32.8151 8.34505 32.7437 8.43501 32.6538L9.53696 31.5518L10.2403 32.6069C8.2623 33.2601 6.48654 34.4131 5.08502 35.9541C3.6835 37.4952 2.70372 39.3721 2.24059 41.403C1.77746 43.4339 1.84668 45.55 2.44155 47.5463C3.03641 49.5426 4.13676 51.3514 5.636 52.7976C7.13524 54.2437 8.98255 55.2782 10.999 55.8007C13.0154 56.3233 15.1326 56.3162 17.1455 55.7802C19.1584 55.2442 20.9988 54.1974 22.4883 52.7413C23.9779 51.2851 25.0661 49.469 25.6476 47.4687H38.7528C38.7849 49.7888 39.7291 52.003 41.3812 53.6323C43.0332 55.2616 45.2602 56.175 47.5805 56.175C49.9008 56.175 52.1278 55.2616 53.7799 53.6323C55.4319 52.003 56.3761 49.7888 56.4082 47.4687H57.1562C57.927 47.4687 58.6662 47.1626 59.2113 46.6175C59.7563 46.0725 60.0625 45.3333 60.0625 44.5625C60.0625 43.7917 59.7563 43.0525 59.2113 42.5075C58.6662 41.9624 57.927 41.6562 57.1562 41.6562ZM50.5467 30.0312C51.5285 30.0324 52.4698 30.4229 53.1641 31.1172C53.8583 31.8114 54.2489 32.7527 54.25 33.7345V41.5786C53.1944 40.3554 51.8226 39.4463 50.2847 38.9508C48.7469 38.4553 47.1024 38.3925 45.5312 38.7693V30.0312H50.5467ZM41.6562 25.1875H43.5937V39.4813C42.8916 39.8377 42.24 40.2859 41.6562 40.8143V25.1875ZM35.4612 45.5312L33.4314 41.6562H35.8437V45.5312H35.4612ZM8.97303 25.1875L12.3922 10.6562H14.5312V25.1875H8.97303ZM16.4687 10.6562H18.4062V25.1875H16.4687V10.6562ZM20.3437 10.6562H30.2792L35.5105 28.0937H33.664C33.5955 28.0937 33.5276 28.0961 33.46 28.0998L32.099 26.0585L32.55 25.7203C32.6518 25.644 32.7375 25.5484 32.8023 25.4389C32.8671 25.3294 32.9097 25.2083 32.9277 25.0823C32.9457 24.9564 32.9387 24.8281 32.9072 24.7049C32.8756 24.5816 32.8201 24.4658 32.7437 24.3641C32.6674 24.2623 32.5718 24.1765 32.4623 24.1117C32.3528 24.0469 32.2317 24.0043 32.1057 23.9863C31.9798 23.9683 31.8515 23.9753 31.7283 24.0069C31.6051 24.0384 31.4893 24.094 31.3875 24.1703L28.4812 26.35C28.2757 26.5042 28.1398 26.7337 28.1035 26.988C28.0671 27.2423 28.1333 27.5007 28.2875 27.7062C28.4416 27.9118 28.6711 28.0477 28.9255 28.084C29.1798 28.1203 29.4382 28.0542 29.6437 27.9L30.5467 27.2227L31.5714 28.7598C31.0958 29.0947 30.7076 29.539 30.4395 30.0553C30.1715 30.5717 30.0315 31.1448 30.0312 31.7266V35.1656L25.0769 25.7074C24.995 25.5506 24.8717 25.4193 24.7204 25.3277C24.5691 25.236 24.3956 25.1875 24.2187 25.1875H20.3437V10.6562ZM33.664 30.0312H35.8437V31.9687H31.9687V31.7266C31.9692 31.2771 32.148 30.8462 32.4658 30.5283C32.7836 30.2105 33.2146 30.0317 33.664 30.0312ZM31.9687 33.9062H35.8437V35.8437H31.9687V33.9062ZM31.9632 38.8532C31.9668 38.8189 31.9687 38.7845 31.9687 38.75V37.7812H35.8437V39.7187H32.4168L31.9632 38.8532ZM11.625 7.50781C11.6252 7.31518 11.7018 7.13048 11.838 6.99427C11.9742 6.85805 12.1589 6.78144 12.3515 6.78125H30.2734C30.4661 6.78144 30.6507 6.85805 30.787 6.99427C30.9232 7.13048 30.9998 7.31518 31 7.50781V8.71875H11.625V7.50781ZM3.98396 45.569L6.44217 43.9297C6.54939 43.8597 6.64167 43.7692 6.7137 43.6633C6.78572 43.5575 6.83605 43.4384 6.86177 43.313C6.8875 43.1876 6.88811 43.0583 6.86358 42.9327C6.83904 42.807 6.78984 42.6875 6.71882 42.581C6.64781 42.4744 6.55638 42.3831 6.44983 42.3121C6.34328 42.2411 6.22372 42.192 6.09806 42.1675C5.9724 42.143 5.84313 42.1437 5.71773 42.1694C5.59232 42.1952 5.47327 42.2456 5.36746 42.3177L3.90937 43.2897C4.05796 41.3853 4.74342 39.562 5.88623 38.0314L8.78037 38.6104C8.84329 38.6229 8.90729 38.6293 8.97145 38.6294C9.21201 38.6295 9.444 38.5401 9.62226 38.3785C9.80053 38.217 9.91233 37.9949 9.93589 37.7555C9.95946 37.5161 9.89311 37.2765 9.74976 37.0834C9.60641 36.8902 9.39632 36.7572 9.16036 36.7104L7.44725 36.3678C8.8967 35.1265 10.6677 34.3205 12.5557 34.0428L14.1951 36.5018C14.3382 36.714 14.5596 36.861 14.8108 36.9105C15.062 36.96 15.3226 36.9081 15.5356 36.7661C15.7487 36.624 15.8968 36.4034 15.9476 36.1525C15.9985 35.9016 15.948 35.6407 15.8071 35.4269L14.8351 33.9689C16.7395 34.1175 18.5627 34.803 20.0933 35.9458L19.5144 38.84C19.4894 38.9647 19.4893 39.0932 19.5139 39.218C19.5386 39.3428 19.5876 39.4615 19.6582 39.5674C19.7288 39.6732 19.8195 39.7642 19.9252 39.835C20.0309 39.9058 20.1495 39.955 20.2743 39.98C20.399 40.005 20.5275 40.0051 20.6523 39.9804C20.7771 39.9557 20.8958 39.9067 21.0017 39.8362C21.1075 39.7656 21.1985 39.6749 21.2693 39.5692C21.3401 39.4635 21.3894 39.3448 21.4143 39.2201L21.7569 37.5069C22.9982 38.9564 23.8042 40.7275 24.0819 42.6156L21.623 44.2548C21.5164 44.3251 21.4247 44.4157 21.3533 44.5215C21.2818 44.6272 21.232 44.7461 21.2066 44.8712C21.1813 44.9963 21.1809 45.1252 21.2055 45.2505C21.2301 45.3757 21.2793 45.4949 21.3501 45.6011C21.4209 45.7073 21.512 45.7985 21.6182 45.8693C21.7243 45.9402 21.8434 45.9894 21.9687 46.0141C22.0939 46.0388 22.2228 46.0385 22.3479 46.0132C22.4731 45.9879 22.592 45.9382 22.6978 45.8668L24.1559 44.8948C24.0073 46.7992 23.3218 48.6224 22.1789 50.1529L19.2848 49.5742C19.0337 49.526 18.7737 49.5789 18.5615 49.7216C18.3494 49.8642 18.2022 50.0849 18.152 50.3356C18.1019 50.5863 18.1529 50.8467 18.2939 51.0599C18.435 51.2732 18.6546 51.422 18.9049 51.474L20.618 51.8166C19.1684 53.0579 17.3974 53.8639 15.5093 54.1416L13.8698 51.6828C13.7999 51.5756 13.7093 51.4833 13.6035 51.4113C13.4977 51.3393 13.3786 51.2889 13.2532 51.2632C13.1278 51.2375 12.9985 51.2369 12.8728 51.2614C12.7472 51.2859 12.6276 51.3351 12.5211 51.4062C12.4146 51.4772 12.3232 51.5686 12.2522 51.6751C12.1813 51.7817 12.1321 51.9013 12.1076 52.0269C12.0831 52.1526 12.0838 52.2819 12.1096 52.4073C12.1354 52.5327 12.1858 52.6517 12.2578 52.7575L13.2298 54.2156C11.3255 54.0671 9.50225 53.3816 7.9717 52.2388L8.55041 49.3446C8.57662 49.2194 8.57776 49.0902 8.55376 48.9645C8.52977 48.8388 8.48111 48.7191 8.4106 48.6124C8.3401 48.5056 8.24914 48.4138 8.14298 48.3424C8.03681 48.271 7.91755 48.2213 7.79208 48.1962C7.66661 48.1711 7.53742 48.1712 7.41196 48.1963C7.2865 48.2214 7.16725 48.2711 7.06112 48.3426C6.95499 48.4141 6.86406 48.5059 6.7936 48.6127C6.72313 48.7195 6.67452 48.8392 6.65057 48.9649L6.308 50.6777C5.06714 49.228 4.26147 47.457 3.98396 45.569ZM14.0331 31.9972C13.4365 31.9972 12.8408 32.0412 12.2507 32.1288L11.4976 31H21.698L29.391 45.5312H26.0418C26.2453 43.8336 26.0865 42.112 25.576 40.4802C25.0654 38.8484 24.2146 37.3433 23.0798 36.0644C21.945 34.7855 20.5518 33.7617 18.9923 33.0606C17.4328 32.3595 15.7424 31.9971 14.0326 31.9972H14.0331ZM31.5832 45.5312L23.1374 29.578C23.055 29.4224 22.9317 29.2922 22.7809 29.2013C22.6301 29.1105 22.4573 29.0625 22.2812 29.0625H9.68748C9.56026 29.0625 9.43429 29.0875 9.31675 29.1362C9.19921 29.1849 9.09241 29.2563 9.00245 29.3462L7.3488 31H4.97451L8.20372 27.125H23.6325L33.2739 45.5312H31.5832ZM37.7812 30.0312H39.7187V43.3434C39.3635 44.0349 39.1019 44.7707 38.9408 45.5312H37.7812V30.0312ZM40.8426 48.8082L42.102 47.9323C42.3129 47.7856 42.4569 47.5611 42.5023 47.3082C42.5477 47.0553 42.4908 46.7947 42.344 46.5838C42.1973 46.3729 41.9728 46.2289 41.7199 46.1835C41.467 46.1381 41.2065 46.195 40.9955 46.3417L40.7406 46.5191C40.8665 45.4848 41.2268 44.493 41.7942 43.6191L43.3001 43.8895C43.5526 43.9339 43.8124 43.8765 44.0226 43.7298C44.2328 43.583 44.3763 43.3589 44.4216 43.1066C44.4669 42.8543 44.4103 42.5943 44.2643 42.3836C44.1183 42.1729 43.8947 42.0286 43.6425 41.9825L43.3408 41.9283C44.1593 41.2861 45.1131 40.8383 46.13 40.6187L47.0059 41.8781C47.1526 42.089 47.3771 42.233 47.63 42.2784C47.8829 42.3238 48.1435 42.2669 48.3544 42.1202C48.5653 41.9734 48.7093 41.7489 48.7547 41.496C48.8001 41.2431 48.7432 40.9826 48.5965 40.7717L48.4191 40.5168C49.4533 40.6427 50.4451 41.003 51.319 41.5703L51.0487 43.0763C51.0258 43.2017 51.0278 43.3304 51.0547 43.4551C51.0816 43.5797 51.1328 43.6978 51.2054 43.8026C51.278 43.9073 51.3706 43.9968 51.4779 44.0657C51.5851 44.1346 51.7049 44.1817 51.8304 44.2043C51.9559 44.2268 52.0846 44.2243 52.2092 44.197C52.3337 44.1697 52.4516 44.1181 52.5562 44.0451C52.6607 43.9721 52.7498 43.8793 52.8184 43.7718C52.8869 43.6643 52.9336 43.5443 52.9557 43.4188L53.0099 43.117C53.6521 43.9355 54.0999 44.8893 54.3195 45.9063L53.0601 46.782C52.9557 46.8547 52.8666 46.9472 52.7979 47.0543C52.7292 47.1614 52.6823 47.2809 52.6598 47.4061C52.6373 47.5314 52.6397 47.6598 52.6669 47.7841C52.694 47.9084 52.7454 48.0261 52.818 48.1305C52.8907 48.235 52.9832 48.3241 53.0903 48.3928C53.1974 48.4614 53.3169 48.5084 53.4422 48.5308C53.5674 48.5533 53.6958 48.5509 53.8201 48.5238C53.9444 48.4966 54.0621 48.4452 54.1665 48.3726L54.4214 48.1952C54.2955 49.2294 53.9352 50.2213 53.3679 51.0953L51.8618 50.825C51.6098 50.7817 51.3509 50.8398 51.1416 50.9866C50.9322 51.1334 50.7894 51.357 50.7443 51.6086C50.6991 51.8603 50.7553 52.1196 50.9005 52.33C51.0457 52.5405 51.2682 52.6849 51.5196 52.732L51.8211 52.7861C51.0026 53.4283 50.0489 53.876 49.0319 54.0956L48.1562 52.8362C48.0835 52.7318 47.991 52.6427 47.8839 52.574C47.7769 52.5053 47.6573 52.4584 47.5321 52.4359C47.4068 52.4134 47.2784 52.4158 47.1541 52.443C47.0298 52.4701 46.9121 52.5215 46.8077 52.5942C46.7032 52.6668 46.6141 52.7593 46.5455 52.8664C46.4768 52.9735 46.4298 53.0931 46.4074 53.2183C46.3849 53.3435 46.3873 53.4719 46.4144 53.5962C46.4416 53.7205 46.493 53.8382 46.5656 53.9427L46.743 54.1976C45.7087 54.0717 44.7168 53.7114 43.8429 53.144L44.1132 51.638C44.1565 51.386 44.0984 51.1271 43.9516 50.9178C43.8048 50.7085 43.5812 50.5656 43.3296 50.5205C43.0779 50.4753 42.8186 50.5315 42.6082 50.6767C42.3978 50.822 42.2533 51.0445 42.2062 51.2958L42.1521 51.5973C41.51 50.7788 41.0622 49.8251 40.8426 48.8082ZM57.1562 45.5312H56.2204C56.0791 44.8621 55.8599 44.2119 55.5672 43.5937H57.1562C57.4132 43.5937 57.6596 43.6958 57.8412 43.8775C58.0229 44.0592 58.125 44.3056 58.125 44.5625C58.125 44.8194 58.0229 45.0658 57.8412 45.2475C57.6596 45.4292 57.4132 45.5312 57.1562 45.5312Z" fill="black"/>
<path d="M48.4375 35.8438C48.6944 35.8438 48.9408 35.7417 49.1225 35.56C49.3042 35.3783 49.4062 35.1319 49.4062 34.875V32.9375C49.4062 32.6806 49.3042 32.4342 49.1225 32.2525C48.9408 32.0708 48.6944 31.9688 48.4375 31.9688C48.1806 31.9688 47.9342 32.0708 47.7525 32.2525C47.5708 32.4342 47.4688 32.6806 47.4688 32.9375V34.875C47.4688 35.1319 47.5708 35.3783 47.7525 35.56C47.9342 35.7417 48.1806 35.8438 48.4375 35.8438Z" fill="black"/>
<path d="M51.3438 35.8438C51.6007 35.8438 51.8471 35.7417 52.0288 35.56C52.2104 35.3783 52.3125 35.1319 52.3125 34.875V32.9375C52.3125 32.6806 52.2104 32.4342 52.0288 32.2525C51.8471 32.0708 51.6007 31.9688 51.3438 31.9688C51.0868 31.9688 50.8404 32.0708 50.6587 32.2525C50.4771 32.4342 50.375 32.6806 50.375 32.9375V34.875C50.375 35.1319 50.4771 35.3783 50.6587 35.56C50.8404 35.7417 51.0868 35.8438 51.3438 35.8438Z" fill="black"/>
</svg>
